<svg width="93" height="156" viewBox="0 0 93 156" fill="none" xmlns="http://www.w3.org/2000/svg">
<path fill-rule="evenodd" clip-rule="evenodd" d="M55.6352 7C55.9039 6.61255 56 6.26602 56 6C56 5.41813 55.54 4.45109 53.8205 3.51315C52.1765 2.61647 49.7689 2 47 2C44.2311 2 41.8235 2.61647 40.1795 3.51315C38.46 4.45109 38 5.41813 38 6C38 6.26602 38.0961 6.61255 38.3648 7H36.1521C36.0521 6.67479 36 6.34071 36 6C36 2.68629 40.9249 0 47 0C53.0751 0 58 2.68629 58 6C58 6.34071 57.9479 6.67479 57.8479 7H55.6352Z" fill="#8E8E8E"/>
<path d="M24 7H69C81.7026 7 92 17.2975 92 30V109.5C92 134.629 71.629 155 46.5 155C21.371 155 1 134.629 1 109.5V30C1 17.2975 11.2975 7 24 7Z" stroke="#8E8E8E" stroke-width="2"/>
</svg>
