<?xml version="1.0" encoding="UTF-8"?>
<svg xmlns="http://www.w3.org/2000/svg" xmlns:xlink="http://www.w3.org/1999/xlink" width="40px" height="40px" viewBox="0 0 40 40" version="1.1">
<g id="surface1">
<rect x="0" y="0" width="40" height="40" style="fill:rgb(47.45098%,7.843137%,75.294118%);fill-opacity:1;stroke:none;"/>
<path style=" stroke:none;fill-rule:nonzero;fill:rgb(100%,100%,100%);fill-opacity:1;" d="M 15.054688 11.957031 C 14.550781 12.210938 13.917969 12.21875 13.234375 12.140625 C 11.84375 11.90625 10.355469 12.101562 8.757812 12.707031 C 7.089844 13.394531 5.183594 14.660156 3.128906 16.28125 C 4.355469 16.433594 5.519531 16.242188 6.597656 15.550781 C 7.386719 15.082031 8.175781 14.632812 8.933594 14.285156 C 10.640625 13.457031 12.183594 13.117188 13.585938 13.164062 C 14.058594 13.195312 14.53125 13.222656 15 13.195312 C 15.5 13.082031 15.847656 12.851562 15.863281 12.371094 C 15.863281 12.316406 15.859375 12.261719 15.851562 12.207031 C 16.03125 12.519531 16.167969 12.808594 16.195312 13.035156 C 16.238281 13.472656 16.007812 13.703125 15.585938 13.789062 C 15.066406 13.898438 14.492188 13.847656 13.910156 13.757812 C 12.917969 13.660156 11.859375 13.730469 10.695312 14.050781 C 9.316406 14.449219 7.863281 15.15625 6.351562 16.105469 C 6.75 16.238281 7.144531 16.34375 7.539062 16.390625 C 8.238281 16.441406 8.921875 16.398438 9.53125 16.035156 C 10.761719 15.289062 12.152344 14.769531 13.820312 14.660156 C 14.457031 14.558594 15.179688 14.691406 15.933594 14.761719 C 16.441406 14.804688 16.75 14.574219 16.820312 14.101562 C 16.914062 14.246094 17.003906 14.417969 17.082031 14.636719 C 17.144531 15.035156 16.855469 15.195312 16.457031 15.285156 C 16.109375 15.324219 15.75 15.289062 15.386719 15.234375 C 14.523438 14.988281 13.675781 14.972656 12.835938 15.121094 C 11.625 15.289062 10.449219 15.796875 9.304688 16.535156 C 9.9375 16.871094 10.632812 17.019531 11.40625 17.03125 C 11.644531 17.019531 11.949219 16.730469 12.257812 16.625 C 13.289062 16.199219 14.277344 16.019531 15.242188 16.007812 C 15.75 15.980469 16.25 16.128906 16.746094 16.136719 C 17.234375 16.125 17.628906 16.007812 17.683594 15.519531 L 17.855469 15.734375 C 18.460938 15.542969 18.96875 15.148438 19.425781 14.617188 C 19.886719 14.15625 20.375 13.457031 20.894531 12.941406 C 21.511719 12.34375 22.121094 11.902344 22.714844 11.808594 C 22.871094 11.117188 23.175781 10.527344 23.613281 10.015625 C 24.109375 9.421875 24.796875 8.875 25.125 8.355469 C 25.546875 7.816406 25.210938 7.253906 24.433594 7.445312 C 21.59375 8.285156 18.683594 9.894531 15.800781 11.972656 C 15.710938 11.65625 15.527344 11.378906 15.304688 11.078125 C 15.4375 11.421875 15.335938 11.78125 15.054688 11.957031 Z M 15.054688 11.957031 "/>
<path style=" stroke:none;fill-rule:nonzero;fill:rgb(100%,100%,100%);fill-opacity:1;" d="M 13.902344 23.710938 L 13.628906 23.636719 C 13.550781 23.648438 13.472656 23.675781 13.394531 23.726562 C 13.414062 24.679688 12.9375 25.363281 12.511719 26.046875 C 12.324219 26.292969 12.347656 26.519531 12.46875 26.738281 C 12.726562 27.136719 12.9375 27.570312 13.085938 28.058594 C 13.359375 28.363281 13.597656 28.761719 13.792969 29.238281 C 13.84375 29.160156 13.886719 29.070312 13.902344 28.945312 C 13.898438 28.867188 13.933594 28.789062 14.046875 28.695312 C 14.179688 28.484375 14.089844 28.226562 13.921875 28.027344 C 13.664062 27.757812 13.523438 27.457031 13.359375 27.125 L 13.164062 26.777344 C 13.191406 26.691406 13.1875 26.585938 13.140625 26.5 C 13.089844 26.433594 13.089844 26.367188 13.140625 26.300781 C 13.191406 26.246094 13.214844 26.152344 13.203125 26.015625 C 13.226562 25.933594 13.292969 25.875 13.386719 25.851562 C 13.589844 25.742188 13.828125 25.636719 14.117188 25.542969 C 14.699219 25.363281 15.265625 24.976562 15.804688 24.277344 C 15.402344 24.144531 14.972656 23.96875 14.542969 23.722656 C 14.359375 23.789062 14.144531 23.757812 13.902344 23.710938 Z M 13.902344 23.710938 "/>
<path style=" stroke:none;fill-rule:nonzero;fill:rgb(100%,100%,100%);fill-opacity:1;" d="M 13.789062 23.53125 C 13.964844 23.597656 14.167969 23.632812 14.332031 23.625 C 13.957031 23.429688 13.570312 23.203125 13.25 22.910156 L 13.367188 23.558594 L 13.53125 23.476562 C 13.589844 23.457031 13.675781 23.46875 13.789062 23.53125 Z M 13.789062 23.53125 "/>
<path style=" stroke:none;fill-rule:nonzero;fill:rgb(100%,100%,100%);fill-opacity:1;" d="M 23.507812 27.785156 C 23.652344 27.539062 23.757812 27.261719 23.796875 26.910156 C 23.789062 26.59375 23.6875 26.300781 23.539062 26.015625 C 23.367188 25.617188 23.449219 25.015625 23.34375 24.535156 C 23.464844 23.535156 22.953125 22.671875 23.417969 22.410156 C 23.933594 21.703125 24.136719 20.9375 23.980469 19.949219 C 24.125 19.535156 24.144531 19.101562 23.898438 18.617188 C 23.875 18.292969 23.90625 17.957031 24.054688 17.597656 C 23.53125 16.46875 24.097656 15.542969 25.164062 14.84375 C 24.195312 15.703125 23.8125 16.652344 24.523438 17.628906 C 24.679688 17.746094 24.765625 17.929688 24.777344 18.183594 C 24.824219 18.484375 24.90625 18.714844 25.019531 18.875 C 25.097656 19.082031 25.074219 19.238281 25.007812 19.371094 C 24.957031 19.632812 25.050781 19.800781 25.210938 19.921875 L 25.394531 20.191406 C 25.457031 20.5 25.683594 20.519531 25.886719 20.511719 C 26.023438 20.449219 26.160156 20.457031 26.296875 20.539062 C 26.558594 20.597656 26.726562 20.539062 26.8125 20.351562 C 26.902344 20.207031 27.089844 20.09375 27.21875 19.910156 C 27.246094 19.492188 27.46875 19.277344 27.277344 19.03125 C 27.214844 18.902344 27.296875 18.636719 27.351562 18.394531 C 27.539062 17.773438 27.691406 17.144531 27.792969 16.507812 C 27.808594 16.292969 27.863281 16.128906 27.957031 16.050781 C 28.113281 15.75 28.160156 15.484375 28.0625 15.339844 C 28.027344 15.183594 27.855469 15.085938 27.957031 14.867188 C 28.011719 14.695312 28.050781 14.523438 28.054688 14.355469 C 28.082031 14.230469 28.078125 14.109375 28.054688 13.984375 C 28.050781 13.691406 28.089844 13.675781 28.210938 13.523438 C 28.285156 13.449219 28.351562 13.367188 28.371094 13.21875 C 28.375 13.058594 28.421875 12.835938 28.542969 12.714844 C 28.265625 12.667969 28.015625 12.738281 27.789062 12.90625 C 27.933594 13.308594 27.945312 13.730469 27.761719 14.179688 C 27.503906 14.75 26.941406 15.042969 26.390625 15.257812 C 26.855469 14.902344 27.324219 14.492188 27.589844 14.011719 C 27.996094 13.128906 27.460938 12.144531 26.523438 11.917969 C 25.480469 11.300781 24.191406 11.339844 22.664062 12.046875 C 21.683594 12.554688 20.625 13.609375 19.609375 14.847656 C 18.886719 15.640625 18.308594 16.035156 17.929688 15.902344 C 18.085938 16.394531 17.597656 16.597656 16.667969 16.601562 C 15.890625 16.476562 15.191406 16.410156 14.632812 16.445312 C 13.515625 16.554688 12.578125 16.835938 11.761719 17.242188 C 12.113281 17.472656 12.453125 17.695312 12.804688 17.816406 C 13.082031 17.925781 13.4375 17.953125 13.960938 17.664062 C 14.410156 17.507812 14.859375 17.367188 15.308594 17.289062 C 15.875 17.195312 16.441406 17.117188 17.007812 17.1875 C 17.519531 17.265625 17.953125 17.265625 18.222656 17.101562 C 18.402344 17.023438 18.503906 16.871094 18.546875 16.601562 C 18.914062 17.015625 19.125 17.164062 18.761719 17.546875 C 18.578125 17.714844 18.222656 17.761719 17.6875 17.6875 C 17.214844 17.59375 16.742188 17.5625 16.273438 17.578125 C 15.398438 17.644531 14.519531 17.84375 13.644531 18.207031 C 13.964844 18.453125 14.292969 18.679688 14.667969 18.792969 C 14.988281 18.90625 15.28125 18.855469 15.546875 18.699219 C 15.882812 18.558594 16.238281 18.445312 16.601562 18.359375 C 17.398438 18.175781 17.875 18.285156 18.566406 18.410156 C 18.976562 18.390625 19.335938 18.292969 19.5 17.917969 C 19.570312 17.703125 19.546875 17.484375 19.425781 17.269531 C 19.957031 17.382812 20.175781 17.730469 20 18.195312 C 19.765625 18.550781 19.382812 18.644531 18.929688 18.617188 C 17.609375 18.550781 16.652344 18.726562 15.898438 19.039062 C 16.585938 19.34375 17.453125 19.386719 18.441406 19.226562 C 17.589844 19.550781 16.738281 19.683594 15.808594 19.351562 C 15.472656 19.226562 15.097656 19.140625 14.679688 19.09375 C 14.050781 18.898438 13.558594 18.636719 13.207031 18.304688 C 12.640625 18.003906 12.601562 18.050781 12.144531 18.136719 C 11.480469 18.246094 10.949219 18.453125 10.609375 18.808594 C 10.378906 18.957031 10.34375 19.335938 10.046875 19.390625 C 9.488281 19.535156 8.835938 19.492188 8.171875 19.421875 C 7.410156 19.339844 6.707031 19.398438 6.066406 19.617188 C 6.078125 18.664062 6.179688 17.710938 6.371094 16.78125 L 6.054688 16.714844 C 5.847656 17.707031 5.742188 18.726562 5.738281 19.746094 C 5.695312 19.765625 5.652344 19.78125 5.609375 19.804688 C 4.554688 20.261719 3.785156 21.171875 3.734375 22.140625 C 3.742188 23.207031 4.335938 23.71875 5.1875 23.75 C 4.511719 23.449219 4.3125 23.003906 4.585938 22.414062 C 4.753906 22.078125 5.222656 21.894531 5.875 21.796875 C 5.941406 22.273438 6.027344 22.746094 6.136719 23.210938 C 6.820312 26.296875 8.34375 28.902344 10.484375 31.042969 L 9.949219 31.867188 L 10.882812 31.5625 L 10.871094 32.601562 L 11.460938 31.800781 L 12.566406 33.148438 L 11.949219 31.617188 L 12.984375 31.984375 L 12.015625 31.050781 L 12.757812 30.273438 C 12.78125 30.21875 12.765625 30.175781 12.710938 30.140625 C 12.5625 30.0625 12.558594 29.929688 12.601562 29.78125 C 12.683594 29.582031 12.6875 29.417969 12.640625 29.273438 L 12.445312 29.425781 C 12.375 29.480469 12.339844 29.601562 12.34375 29.773438 C 12.335938 30 12.4375 30.269531 12.417969 30.421875 L 11.890625 30.417969 L 12.125 29.183594 C 12.125 29.183594 11.496094 30.097656 11.488281 30.03125 C 11.476562 29.964844 11.210938 29.476562 11.210938 29.476562 L 11.007812 30.097656 C 8.96875 28.300781 7.625 26.414062 6.824219 24.460938 C 6.527344 23.582031 6.320312 22.671875 6.195312 21.742188 C 6.980469 21.542969 7.761719 21.132812 8.542969 20.511719 C 8.800781 20.257812 9.085938 20.027344 9.453125 19.828125 C 9.714844 19.738281 9.949219 19.832031 9.796875 20.207031 C 9.636719 21.015625 9.621094 21.777344 9.863281 22.441406 C 10.15625 23.167969 10.566406 23.75 11.023438 24.277344 C 11.261719 24.566406 11.285156 24.871094 11.191406 25.148438 C 11.105469 25.4375 11.003906 25.699219 10.898438 25.949219 C 10.699219 26.390625 10.773438 26.613281 10.964844 26.765625 C 11.148438 26.878906 11.296875 27.011719 11.546875 27.339844 C 12.058594 27.847656 12.535156 28.375 12.738281 29.046875 C 12.851562 29.308594 12.824219 29.546875 12.734375 29.773438 C 12.488281 30.039062 13.0625 30 13.023438 30.3125 C 12.980469 30.414062 12.816406 30.335938 12.738281 30.53125 C 12.589844 30.695312 12.566406 30.898438 12.597656 31.121094 C 12.691406 31.597656 12.925781 31.859375 13.273438 31.933594 C 13.796875 31.945312 13.804688 31.695312 13.851562 30.921875 C 13.945312 30.636719 13.972656 30.34375 13.851562 30.027344 C 13.894531 29.6875 13.542969 29.101562 13.273438 28.617188 C 12.925781 28.125 12.59375 27.632812 12.371094 27.082031 C 11.941406 26.324219 12.503906 25.84375 12.863281 25.164062 C 13.175781 24.472656 13.253906 23.664062 13.144531 22.761719 C 14.148438 23.476562 15.152344 23.902344 16.160156 24.199219 C 17.261719 24.421875 18.222656 24.375 19.007812 24.003906 L 19.214844 24.066406 C 19.214844 25.246094 19.195312 26.441406 19.335938 27.472656 C 19.332031 28.125 19.386719 28.652344 19.496094 29.054688 C 19.519531 30.082031 19.292969 31.097656 19.507812 32.003906 L 19.507812 32.757812 L 19.441406 33.289062 L 19.730469 33.582031 L 19.734375 33.910156 L 19.480469 34.152344 C 19.441406 34.375 19.488281 34.566406 19.625 34.71875 C 19.84375 34.902344 20.058594 35.011719 20.277344 35.089844 C 20.738281 35.175781 21.007812 35.148438 21.222656 35.042969 C 21.183594 34.59375 21.101562 34.160156 20.851562 33.75 C 20.753906 33.660156 20.523438 33.546875 20.609375 33.257812 C 20.71875 33.054688 20.722656 32.851562 20.617188 32.648438 C 20.546875 32.367188 20.300781 32.125 20.289062 31.71875 C 20.1875 31.191406 20.140625 30.625 20.179688 29.988281 C 20.460938 29.964844 20.699219 29.886719 20.910156 29.722656 C 21.070312 29.632812 21.238281 29.679688 21.363281 29.835938 C 21.589844 29.917969 21.894531 29.796875 22 29.59375 L 22.929688 28.382812 C 23.109375 28.105469 23.296875 27.886719 23.507812 27.785156 Z M 26.027344 13.445312 C 25.953125 13.304688 25.816406 13.355469 25.773438 13.523438 C 25.707031 13.785156 25.71875 14.03125 25.722656 14.273438 C 25.589844 14.074219 25.515625 13.777344 25.597656 13.304688 C 25.671875 13.078125 25.828125 12.945312 26.039062 13.113281 C 26.183594 13.261719 26.269531 13.445312 26.351562 13.683594 C 26.390625 13.851562 26.371094 13.976562 26.316406 14.054688 C 26.234375 13.851562 26.15625 13.609375 26.027344 13.445312 Z M 26.660156 16.066406 C 26.773438 16.101562 26.839844 16.199219 26.867188 16.3125 C 26.875 16.390625 26.859375 16.480469 26.8125 16.546875 C 26.753906 16.460938 26.679688 16.40625 26.566406 16.417969 C 26.476562 16.398438 26.359375 16.402344 26.296875 16.363281 C 26.207031 16.308594 26.15625 16.226562 26.152344 16.125 C 26.136719 16.125 26.15625 15.867188 26.171875 15.867188 C 26.191406 15.867188 26.304688 15.988281 26.375 16.027344 C 26.472656 16.054688 26.570312 16.058594 26.660156 16.066406 Z M 27.402344 13.375 C 27.386719 13.777344 27.242188 14.085938 27.039062 14.355469 C 27.164062 14.015625 27.195312 13.679688 27.128906 13.34375 C 27.089844 13.21875 27.0625 13.078125 27.050781 12.929688 C 27.054688 12.8125 27.023438 12.660156 27 12.511719 C 27.25 12.707031 27.421875 12.964844 27.402344 13.375 Z M 25.753906 11.867188 C 25.957031 11.933594 26.152344 12.035156 26.332031 12.210938 C 26.574219 12.429688 26.816406 12.59375 26.878906 12.886719 C 26.953125 13.339844 26.789062 13.625 26.542969 13.808594 C 26.738281 13.207031 26.621094 12.78125 26.25 12.503906 C 25.699219 12.003906 24.941406 11.933594 24.09375 12.058594 C 24.460938 11.863281 24.984375 11.769531 25.753906 11.867188 Z M 18.507812 16.527344 L 18.183594 16.171875 C 18.351562 16.191406 18.519531 16.1875 18.6875 16.125 C 19.128906 15.957031 19.539062 15.6875 19.902344 15.277344 C 19.574219 15.902344 19.113281 16.324219 18.507812 16.527344 Z M 22.4375 27.660156 C 22.148438 28.125 21.78125 28.429688 21.480469 28.550781 C 21.285156 28.550781 21.222656 28.582031 21.1875 28.703125 C 21.144531 28.785156 21.019531 28.800781 20.914062 28.75 C 20.746094 28.679688 20.578125 28.625 20.410156 28.582031 C 20.5 28.210938 20.558594 27.832031 20.542969 27.425781 C 20.527344 27.101562 20.550781 26.78125 20.605469 26.460938 L 20.84375 24.523438 C 20.871094 24.523438 21.425781 23.929688 21.425781 23.929688 C 21.726562 24.066406 21.855469 24.308594 21.804688 24.65625 C 21.949219 25.53125 22.316406 26.367188 22.585938 26.871094 C 22.546875 27.011719 22.554688 27.136719 22.601562 27.238281 C 22.601562 27.386719 22.535156 27.523438 22.4375 27.660156 Z M 22.4375 27.660156 "/>
<path style=" stroke:none;fill-rule:nonzero;fill:rgb(100%,100%,100%);fill-opacity:1;" d="M 20.671875 4.859375 C 15.988281 4.859375 11.667969 6.992188 8.8125 10.714844 C 5.238281 12.449219 2.101562 14.703125 0 17.058594 C 0.929688 17.070312 1.90625 16.785156 2.960938 15.972656 C 4.570312 14.566406 6.179688 13.488281 7.789062 12.589844 C 9.511719 11.703125 11.179688 11.28125 12.789062 11.347656 C 13.441406 11.386719 14.035156 11.386719 14.355469 11.222656 C 14.925781 10.949219 15.019531 10.359375 14.738281 9.851562 C 14.191406 8.933594 12.597656 9.136719 11.457031 9.558594 C 10.789062 9.816406 10.132812 10.101562 9.488281 10.398438 C 12.273438 7.078125 16.3125 5.183594 20.671875 5.183594 C 28.730469 5.183594 35.285156 11.738281 35.285156 19.792969 C 35.285156 27.003906 30.128906 33.070312 23.023438 34.21875 L 23.074219 34.539062 C 30.335938 33.363281 35.609375 27.164062 35.609375 19.796875 C 35.609375 11.558594 28.910156 4.859375 20.671875 4.859375 Z M 20.671875 4.859375 "/>
<path style=" stroke:none;fill-rule:evenodd;fill:rgb(100%,100%,100%);fill-opacity:1;" d="M 31.300781 15.195312 L 27.886719 16.042969 L 27.785156 15.125 Z M 31.300781 15.195312 "/>
</g>
</svg>
