<?xml version="1.0" encoding="UTF-8" standalone="no"?>
<svg
   xmlns:dc="http://purl.org/dc/elements/1.1/"
   xmlns:cc="http://creativecommons.org/ns#"
   xmlns:rdf="http://www.w3.org/1999/02/22-rdf-syntax-ns#"
   xmlns:svg="http://www.w3.org/2000/svg"
   xmlns="http://www.w3.org/2000/svg"
   xmlns:sodipodi="http://sodipodi.sourceforge.net/DTD/sodipodi-0.dtd"
   xmlns:inkscape="http://www.inkscape.org/namespaces/inkscape"
   version="1.1"
   id="svg32"
   xml:space="preserve"
   width="32"
   height="44"
   viewBox="0 0 32 44"
   sodipodi:docname="pod_reservoir.svg"
   inkscape:version="1.0.1 (c497b03c, 2020-09-10)"><metadata
     id="metadata38"><rdf:RDF><cc:Work
         rdf:about=""><dc:format>image/svg+xml</dc:format><dc:type
           rdf:resource="http://purl.org/dc/dcmitype/StillImage" /><dc:title></dc:title></cc:Work></rdf:RDF></metadata><defs
     id="defs36"><clipPath
       clipPathUnits="userSpaceOnUse"
       id="clipPath28"><path
         d="M 0,0 H 24 V 33 H 0 Z"
         id="path26" /></clipPath></defs><sodipodi:namedview
     pagecolor="#ffffff"
     bordercolor="#666666"
     borderopacity="1"
     objecttolerance="10"
     gridtolerance="10"
     guidetolerance="10"
     inkscape:pageopacity="0"
     inkscape:pageshadow="2"
     inkscape:window-width="1360"
     inkscape:window-height="980"
     id="namedview34"
     showgrid="false"
     inkscape:zoom="10.663844"
     inkscape:cx="19.290876"
     inkscape:cy="25.479921"
     inkscape:window-x="456"
     inkscape:window-y="47"
     inkscape:window-maximized="0"
     inkscape:current-layer="g40" /><g
     id="g40"
     inkscape:groupmode="layer"
     inkscape:label="pod_reservoir"
     transform="matrix(1.3333333,0,0,-1.3333333,0,44)"><g
       id="g42"
       transform="translate(5.5,0.666748)"><path
         d="M 0,3.666626 1.837792,3.263187 C 1.877344,2.915812 2.166667,2.333292 2.166667,2.333292 2.177629,2.307872 2.192581,2.275329 2.211523,2.235664 2.377565,1.887953 2.72861,1.666571 3.113933,1.666592 h 2.768019 c 0.37878,0 0.725048,0.214011 0.894436,0.552805 L 6.754,2.180626 8.333333,1.833292 7.83117,0.618057 C 7.676588,0.243968 7.311737,-4e-5 6.906967,-4e-5 H 2.183942 c -0.40477,0 -0.769621,0.244008 -0.924203,0.618097 L 0.757576,1.833292 Z"
         style="fill:#000000;fill-opacity:1;fill-rule:nonzero;stroke:none"
         id="path44" /></g><g
       id="g46"
       transform="translate(1,1.234253)"><path
         d="m 18.486643,30.531454 0.0815,0.9967 -0.0072,5.38e-4 -0.07427,-0.997238 z m 2.304693,-0.911632 0.670698,0.741729 v 0 z m 0.924168,-1.908816 0.99761,0.06909 v 0 z m 0.284073,-11.345951 1.000001,2.3e-5 -3e-6,0.0014 -0.999998,-0.0014 z m 2.4e-5,-1.178623 1,-0.0014 v 0.0014 l -1,-2.1e-5 z m -0.006,-1.655878 0.999977,-0.0068 5e-6,7.92e-4 -0.999982,0.006 z m -0.0036,-0.525614 0.999971,-0.0077 6e-6,9.04e-4 -0.999977,0.0068 z M 19.069851,5.628397 18.335783,6.307474 Z M 12.563469,2.20936 11.604387,2.492491 11.06799,1.1277139 12.704428,1.219345 Z m -0.392686,2.117556 -0.894427,-0.447214 3.7e-5,-7.3e-5 z M 11.433428,5.133715 10.907697,4.283064 v 0 z M 6.499844,5.079473 7.073489,4.26037 h 10e-7 z M 5.772882,4.214243 4.879096,4.662739 4.878776,4.6621 Z M 5.516418,3.565426 5.017763,2.698626 6.1934229,2.0798021 6.46135,3.238159 Z m -3.949564,3.880953 0.85765,0.514234 z m -1.556915,5.558532 -0.999971,-0.0077 v -2.9e-5 l 0.999971,0.0077 z m -0.00954,2.180644 -1,-6.89e-4 10e-7,-7.03e-4 0.999999,0.0014 z M 0,15.765747 h -1 v -6.88e-4 z m 0.262877,11.621447 -0.997645,0.06874 -2.91e-4,-0.0045 0.997936,-0.06423 z m 0.872909,2.178648 0.738536,-0.674214 v 0 z m 1.89463,0.927717 -0.082303,0.996607 z M 11,29.765747 c 2.873804,0 5.345728,-0.07762 7.412373,-0.231531 l 0.14854,1.994476 C 16.43038,31.687366 13.906369,31.765747 11,31.765747 Z m 7.40514,-0.230965 c 0.773334,-0.06324 1.342583,-0.319488 1.715498,-0.65669 l 1.341396,1.483459 c -0.75621,0.683794 -1.76605,1.074349 -2.893888,1.166577 z m 1.715498,-0.65669 c 0.354795,-0.320818 0.563442,-0.747927 0.597256,-1.236176 l 1.99522,0.13818 c -0.06931,1.000788 -0.509901,1.911257 -1.25108,2.581455 z m 0.597256,-1.236176 c 0.180446,-2.605524 0.274664,-6.361007 0.281684,-11.278288 l 1.999997,0.0029 c -0.007,4.930822 -0.101286,8.739828 -0.286461,11.413612 l -1.99522,-0.13818 z m 0.281683,-11.27688 2.4e-5,-1.178625 2,4.2e-5 -2.4e-5,1.178625 z m 2.6e-5,-1.177212 c -7.95e-4,-0.571096 -0.0028,-1.121628 -0.006,-1.651275 l 1.999965,-0.01199 c 0.0032,0.532942 0.0052,1.08655 0.006,1.660481 l -1.999996,0.0028 z m -0.006,-1.650484 -0.0036,-0.525614 1.999954,-0.01357 0.0036,0.525613 -1.999955,0.01357 z m -0.0036,-0.52471 C 20.970173,10.422844 19.967518,8.071344 18.335783,6.307474 L 19.803919,4.94932 c 1.956928,2.115402 3.162216,4.940927 3.186111,8.04793 l -1.999939,0.01538 z M 18.335783,6.307474 C 16.81258,4.660921 14.744991,3.530052 12.42251,3.199375 l 0.281918,-1.98003 c 2.792658,0.397619 5.274587,1.757292 7.099491,3.729975 z M 13.522551,1.926229 c 0.06534,0.221325 0.144116,0.53477 0.144116,0.837252 h -2 c 0,0.010967 6.71e-4,-0.00842 -0.01075,-0.06715 -0.0106,-0.054512 -0.02768,-0.123079 -0.05153,-0.20384 z m 0.144116,0.837252 c 0,0.429545 -0.165621,0.929894 -0.275284,1.231629 -0.124849,0.343521 -0.263677,0.654054 -0.32621,0.779092 l -1.78878,-0.894573 c 0.02495,-0.049888 0.134063,-0.289167 0.235285,-0.567678 0.04975,-0.136885 0.09221,-0.26866 0.121148,-0.381497 0.03216,-0.125429 0.03384,-0.175342 0.03384,-0.166973 z M 13.06521,4.77413 C 12.811171,5.282207 12.424175,5.69697 11.959159,5.984365 L 10.907697,4.283064 c 0.155328,-0.095999 0.283988,-0.23402 0.368659,-0.403362 z m -1.106051,1.210235 c -0.465036,0.287409 -1.009085,0.448048 -1.577193,0.448048 v -2 c 0.189436,0 0.370422,-0.053364 0.525731,-0.149349 z M 10.381966,6.432413 H 7.618593 v -2 h 2.763373 z m -2.763373,0 c -0.599542,0 -1.181503,-0.176041 -1.692395,-0.533836 L 7.07349,4.26037 C 7.241534,4.378057 7.421406,4.432413 7.618593,4.432413 Z M 5.926198,5.898577 C 5.508855,5.606298 5.146646,5.195927 4.879097,4.662739 L 6.666667,3.765747 C 6.791014,4.013554 6.937561,4.165174 7.073489,4.26037 Z M 4.878776,4.6621 C 4.85484,4.614313 4.702985,4.272375 4.571486,3.892693 L 6.46135,3.238159 c 0.051957,0.150019 0.108362,0.293003 0.152578,0.400027 0.021869,0.052936 0.040191,0.095706 0.052713,0.124504 0.00625,0.014373 0.011008,0.025152 0.013983,0.03185 0.00149,0.00336 0.0025,0.00562 0.003,0.00673 2.59e-4,5.8e-4 3.25e-4,7.25e-4 2.09e-4,4.68e-4 L 6.683237,3.800418 C 6.683112,3.800142 6.682685,3.799204 6.682121,3.79797 6.68189,3.797464 6.681217,3.795996 6.680343,3.794109 6.679863,3.793072 6.678607,3.790379 6.677832,3.788727 6.676357,3.785603 6.670964,3.774416 6.666987,3.766386 Z M 6.015073,4.432226 C 4.539089,5.281334 3.300516,6.499584 2.424504,7.960613 L 0.709205,6.932144 C 1.759939,5.17971 3.24526,3.718315 5.017763,2.698626 Z M 2.424504,7.960613 C 1.538745,9.437899 1.02413,11.163637 1.009909,13.012602 l -1.999941,-0.01538 c 0.017039,-2.215387 0.634745,-4.289698 1.699237,-6.065077 z m -1.414594,5.05196 c -0.00528,0.68869 -0.00845,1.413708 -0.00951,2.174373 l -1.999998,-0.0028 c 0.001064,-0.764434 0.004256,-1.493649 0.009568,-2.186913 l 1.999942,0.01532 z M 1.000399,15.186243 1,15.766436 l -2,-0.0014 3.99e-4,-0.580193 z M 1,15.765747 c 0,5.011562 0.087328,8.861679 0.260812,11.557221 L -0.735059,27.45142 C -0.912687,24.691483 -1,20.790926 -1,15.765747 Z m 0.260511,11.552704 c 0.047124,0.683889 0.285427,1.213463 0.613811,1.573177 L 0.39725,30.240055 c -0.66927,-0.73312 -1.05776,-1.706602 -1.132008,-2.784119 z m 0.613811,1.573177 c 0.318987,0.349419 0.748521,0.564867 1.238398,0.605322 L 2.948113,31.490166 C 1.953124,31.407995 1.055352,30.960943 0.39725,30.240055 Z M 3.11272,29.49695 C 5.27864,29.675821 7.90607,29.765747 11,29.765747 v 2 c -3.128305,0 -5.813968,-0.09077 -8.051887,-0.275581 z"
         style="fill:#000000;fill-opacity:1;fill-rule:nonzero;stroke:none"
         id="path48"
         sodipodi:nodetypes="ccccccccccccccccccccccccccccccccccccccccccccccccccccccccccccccccccccccccccccccccccccccccccccccccccccccccccsccccscccccccccccccccccccccccccccccccscccsccscccccccccccccccccccccccccccccccsssssssscccccccccccccsccccsccccccccccccccccccccccccc" /></g></g></svg>
