<?xml version="1.0" encoding="UTF-8"?>
<svg xmlns="http://www.w3.org/2000/svg" xmlns:xlink="http://www.w3.org/1999/xlink" width="84px" height="84px" viewBox="0 0 84 84" version="1.1">
<g id="surface1">
<rect x="0" y="0" width="84" height="84" style="fill:rgb(47.45098%,7.843137%,75.294118%);fill-opacity:1;stroke:none;"/>
<path style=" stroke:none;fill-rule:nonzero;fill:rgb(100%,100%,100%);fill-opacity:1;" d="M 31.609375 25.113281 C 30.558594 25.640625 29.226562 25.660156 27.792969 25.492188 C 24.875 25 21.75 25.410156 18.386719 26.6875 C 14.890625 28.132812 10.890625 30.785156 6.570312 34.191406 C 9.148438 34.507812 11.59375 34.105469 13.855469 32.652344 C 15.515625 31.671875 17.167969 30.730469 18.765625 30 C 22.34375 28.261719 25.582031 27.546875 28.53125 27.640625 C 29.523438 27.710938 30.511719 27.769531 31.503906 27.714844 C 32.550781 27.46875 33.28125 26.988281 33.316406 25.984375 C 33.316406 25.863281 33.304688 25.75 33.289062 25.636719 C 33.664062 26.289062 33.949219 26.894531 34.011719 27.375 C 34.097656 28.292969 33.613281 28.773438 32.734375 28.957031 C 31.640625 29.1875 30.4375 29.078125 29.207031 28.894531 C 27.132812 28.6875 24.90625 28.835938 22.460938 29.503906 C 19.5625 30.34375 16.515625 31.824219 13.339844 33.820312 C 14.171875 34.097656 15.003906 34.320312 15.835938 34.417969 C 17.304688 34.523438 18.734375 34.441406 20.019531 33.671875 C 22.605469 32.105469 25.519531 31.019531 29.023438 30.789062 C 30.359375 30.570312 31.878906 30.851562 33.464844 31.003906 C 34.53125 31.085938 35.171875 30.605469 35.320312 29.613281 C 35.519531 29.917969 35.707031 30.273438 35.867188 30.734375 C 36 31.578125 35.398438 31.910156 34.558594 32.101562 C 33.832031 32.179688 33.074219 32.109375 32.308594 31.996094 C 30.5 31.472656 28.71875 31.445312 26.957031 31.753906 C 24.410156 32.105469 21.945312 33.167969 19.539062 34.722656 C 20.871094 35.429688 22.328125 35.738281 23.949219 35.769531 C 24.457031 35.738281 25.089844 35.136719 25.742188 34.914062 C 27.90625 34.019531 29.984375 33.640625 32.003906 33.617188 C 33.074219 33.5625 34.125 33.867188 35.164062 33.886719 C 36.195312 33.863281 37.023438 33.617188 37.132812 32.59375 L 37.5 33.042969 C 38.765625 32.644531 39.835938 31.816406 40.796875 30.699219 C 41.761719 29.726562 42.789062 28.257812 43.882812 27.179688 C 45.171875 25.921875 46.453125 25 47.703125 24.796875 C 48.027344 23.347656 48.671875 22.105469 49.585938 21.035156 C 50.628906 19.785156 52.074219 18.636719 52.761719 17.550781 C 53.644531 16.414062 52.945312 15.230469 51.3125 15.632812 C 45.347656 17.402344 39.234375 20.777344 33.183594 25.140625 C 32.996094 24.480469 32.609375 23.890625 32.140625 23.265625 C 32.421875 23.984375 32.207031 24.742188 31.609375 25.113281 Z M 31.609375 25.113281 "/>
<path style=" stroke:none;fill-rule:nonzero;fill:rgb(100%,100%,100%);fill-opacity:1;" d="M 29.195312 49.796875 L 28.621094 49.636719 C 28.457031 49.65625 28.292969 49.722656 28.128906 49.828125 C 28.167969 51.832031 27.171875 53.265625 26.273438 54.695312 C 25.878906 55.214844 25.929688 55.691406 26.183594 56.148438 C 26.722656 56.984375 27.171875 57.898438 27.480469 58.917969 C 28.054688 59.566406 28.558594 60.402344 28.964844 61.402344 C 29.070312 61.230469 29.164062 61.050781 29.195312 60.785156 C 29.1875 60.625 29.257812 60.453125 29.496094 60.257812 C 29.777344 59.820312 29.589844 59.277344 29.234375 58.859375 C 28.695312 58.292969 28.394531 57.660156 28.054688 56.960938 L 27.644531 56.230469 C 27.703125 56.046875 27.695312 55.832031 27.59375 55.648438 C 27.488281 55.515625 27.488281 55.375 27.59375 55.230469 C 27.703125 55.117188 27.75 54.921875 27.726562 54.632812 C 27.777344 54.460938 27.917969 54.339844 28.113281 54.285156 C 28.542969 54.054688 29.042969 53.839844 29.648438 53.640625 C 30.871094 53.265625 32.054688 52.449219 33.1875 50.984375 C 32.34375 50.703125 31.445312 50.332031 30.542969 49.816406 C 30.15625 49.953125 29.703125 49.890625 29.195312 49.796875 Z M 29.195312 49.796875 "/>
<path style=" stroke:none;fill-rule:nonzero;fill:rgb(100%,100%,100%);fill-opacity:1;" d="M 28.960938 49.414062 C 29.324219 49.554688 29.757812 49.625 30.09375 49.613281 C 29.308594 49.207031 28.496094 48.726562 27.828125 48.113281 L 28.070312 49.46875 L 28.414062 49.300781 C 28.539062 49.261719 28.714844 49.285156 28.960938 49.414062 Z M 28.960938 49.414062 "/>
<path style=" stroke:none;fill-rule:nonzero;fill:rgb(100%,100%,100%);fill-opacity:1;" d="M 49.367188 58.351562 C 49.664062 57.835938 49.894531 57.25 49.972656 56.511719 C 49.957031 55.847656 49.742188 55.230469 49.433594 54.636719 C 49.074219 53.792969 49.242188 52.535156 49.019531 51.523438 C 49.273438 49.425781 48.203125 47.613281 49.179688 47.0625 C 50.257812 45.578125 50.6875 43.96875 50.363281 41.894531 C 50.660156 41.027344 50.703125 40.113281 50.1875 39.097656 C 50.136719 38.414062 50.199219 37.707031 50.519531 36.953125 C 49.417969 34.585938 50.609375 32.640625 52.839844 31.171875 C 50.8125 32.976562 50.007812 34.96875 51.503906 37.023438 C 51.828125 37.261719 52.003906 37.648438 52.035156 38.183594 C 52.128906 38.816406 52.300781 39.300781 52.542969 39.640625 C 52.703125 40.070312 52.65625 40.398438 52.515625 40.683594 C 52.410156 41.230469 52.605469 41.578125 52.941406 41.835938 L 53.332031 42.40625 C 53.460938 43.054688 53.933594 43.09375 54.359375 43.074219 C 54.648438 42.945312 54.9375 42.964844 55.226562 43.128906 C 55.769531 43.257812 56.128906 43.128906 56.300781 42.742188 C 56.496094 42.429688 56.890625 42.199219 57.160156 41.808594 C 57.222656 40.929688 57.683594 40.480469 57.28125 39.96875 C 57.15625 39.699219 57.324219 39.136719 57.433594 38.632812 C 57.832031 37.324219 58.152344 36.003906 58.363281 34.667969 C 58.402344 34.210938 58.515625 33.871094 58.710938 33.707031 C 59.039062 33.078125 59.136719 32.515625 58.929688 32.210938 C 58.855469 31.882812 58.496094 31.679688 58.710938 31.222656 C 58.824219 30.863281 58.910156 30.503906 58.917969 30.144531 C 58.976562 29.886719 58.96875 29.628906 58.917969 29.371094 C 58.902344 28.75 58.984375 28.71875 59.246094 28.402344 C 59.398438 28.238281 59.539062 28.074219 59.582031 27.757812 C 59.589844 27.421875 59.6875 26.957031 59.9375 26.699219 C 59.355469 26.601562 58.832031 26.75 58.351562 27.105469 C 58.660156 27.945312 58.6875 28.832031 58.304688 29.777344 C 57.757812 30.972656 56.578125 31.589844 55.421875 32.042969 C 56.398438 31.296875 57.382812 30.433594 57.9375 29.421875 C 58.796875 27.566406 57.671875 25.503906 55.695312 25.03125 C 53.507812 23.734375 50.800781 23.816406 47.59375 25.292969 C 45.539062 26.363281 43.3125 28.578125 41.183594 31.183594 C 39.660156 32.84375 38.449219 33.671875 37.65625 33.394531 C 37.984375 34.429688 36.957031 34.855469 35.003906 34.863281 C 33.371094 34.597656 31.902344 34.460938 30.726562 34.539062 C 28.382812 34.761719 26.417969 35.359375 24.703125 36.210938 C 25.4375 36.695312 26.152344 37.160156 26.886719 37.417969 C 27.472656 37.644531 28.214844 37.699219 29.320312 37.097656 C 30.265625 36.765625 31.207031 36.46875 32.152344 36.308594 C 33.339844 36.109375 34.527344 35.949219 35.714844 36.09375 C 36.789062 36.257812 37.703125 36.261719 38.265625 35.914062 C 38.640625 35.75 38.855469 35.425781 38.945312 34.863281 C 39.71875 35.734375 40.160156 36.046875 39.398438 36.851562 C 39.015625 37.203125 38.265625 37.300781 37.140625 37.140625 C 36.152344 36.945312 35.160156 36.882812 34.171875 36.914062 C 32.332031 37.050781 30.496094 37.46875 28.65625 38.230469 C 29.328125 38.75 30.015625 39.230469 30.804688 39.460938 C 31.480469 39.699219 32.085938 39.601562 32.648438 39.265625 C 33.355469 38.96875 34.097656 38.738281 34.863281 38.554688 C 36.535156 38.171875 37.535156 38.398438 38.988281 38.664062 C 39.851562 38.621094 40.601562 38.414062 40.953125 37.628906 C 41.097656 37.175781 41.046875 36.722656 40.792969 36.265625 C 41.910156 36.503906 42.367188 37.230469 42 38.210938 C 41.507812 38.957031 40.703125 39.152344 39.753906 39.097656 C 36.976562 38.953125 34.964844 39.324219 33.386719 39.980469 C 34.832031 40.621094 36.652344 40.710938 38.726562 40.378906 C 36.9375 41.054688 35.148438 41.335938 33.199219 40.640625 C 32.492188 40.375 31.703125 40.195312 30.824219 40.097656 C 29.511719 39.683594 28.476562 39.136719 27.734375 38.4375 C 26.542969 37.8125 26.464844 37.910156 25.5 38.089844 C 24.105469 38.316406 22.992188 38.753906 22.28125 39.496094 C 21.796875 39.804688 21.71875 40.605469 21.097656 40.71875 C 19.929688 41.027344 18.554688 40.933594 17.15625 40.785156 C 15.5625 40.613281 14.085938 40.738281 12.738281 41.199219 C 12.761719 39.191406 12.972656 37.191406 13.382812 35.242188 L 12.714844 35.101562 C 12.277344 37.183594 12.054688 39.324219 12.050781 41.46875 C 11.960938 41.507812 11.867188 41.542969 11.777344 41.585938 C 9.5625 42.550781 7.949219 44.464844 7.839844 46.492188 C 7.859375 48.734375 9.109375 49.804688 10.894531 49.871094 C 9.476562 49.246094 9.054688 48.308594 9.625 47.070312 C 9.980469 46.363281 10.96875 45.972656 12.339844 45.777344 C 12.476562 46.777344 12.65625 47.765625 12.882812 48.742188 C 14.320312 55.21875 17.523438 60.691406 22.015625 65.1875 L 20.894531 66.925781 L 22.851562 66.277344 L 22.832031 68.464844 L 24.0625 66.78125 L 26.386719 69.609375 L 25.09375 66.398438 L 27.269531 67.167969 L 25.234375 65.207031 L 26.789062 63.574219 C 26.84375 63.464844 26.808594 63.371094 26.6875 63.296875 C 26.382812 63.128906 26.371094 62.855469 26.464844 62.542969 C 26.636719 62.121094 26.640625 61.773438 26.546875 61.472656 L 26.136719 61.796875 C 25.984375 61.910156 25.917969 62.164062 25.921875 62.523438 C 25.90625 62.996094 26.121094 63.5625 26.082031 63.882812 L 24.972656 63.875 L 25.464844 61.289062 C 25.464844 61.289062 24.144531 63.207031 24.125 63.066406 C 24.101562 62.925781 23.539062 61.898438 23.539062 61.898438 L 23.113281 63.207031 C 18.835938 59.429688 16.015625 55.46875 14.332031 51.371094 C 13.710938 49.523438 13.273438 47.613281 13.011719 45.660156 C 14.65625 45.242188 16.296875 44.378906 17.941406 43.074219 C 18.484375 42.542969 19.078125 42.054688 19.851562 41.644531 C 20.398438 41.453125 20.894531 41.648438 20.574219 42.433594 C 20.238281 44.136719 20.207031 45.726562 20.710938 47.125 C 21.324219 48.652344 22.191406 49.871094 23.148438 50.980469 C 23.652344 51.589844 23.699219 52.230469 23.503906 52.8125 C 23.320312 53.417969 23.109375 53.96875 22.886719 54.496094 C 22.472656 55.421875 22.621094 55.890625 23.03125 56.210938 C 23.414062 56.441406 23.726562 56.722656 24.246094 57.410156 C 25.320312 58.476562 26.320312 59.589844 26.753906 60.996094 C 26.984375 61.550781 26.929688 62.050781 26.742188 62.527344 C 26.226562 63.078125 27.433594 63 27.351562 63.65625 C 27.257812 63.871094 26.914062 63.707031 26.753906 64.113281 C 26.4375 64.460938 26.386719 64.890625 26.457031 65.355469 C 26.652344 66.359375 27.144531 66.902344 27.875 67.066406 C 28.972656 67.085938 28.992188 66.5625 29.089844 64.933594 C 29.289062 64.339844 29.34375 63.722656 29.085938 63.054688 C 29.179688 62.34375 28.4375 61.109375 27.875 60.09375 C 27.140625 59.0625 26.445312 58.027344 25.976562 56.871094 C 25.074219 55.28125 26.261719 54.269531 27.011719 52.847656 C 27.664062 51.394531 27.835938 49.695312 27.601562 47.800781 C 29.714844 49.300781 31.824219 50.199219 33.933594 50.816406 C 36.25 51.285156 38.265625 51.1875 39.914062 50.40625 L 40.355469 50.535156 C 40.347656 53.011719 40.308594 55.523438 40.605469 57.695312 C 40.597656 59.0625 40.710938 60.167969 40.941406 61.015625 C 40.988281 63.171875 40.515625 65.308594 40.960938 67.207031 L 40.96875 68.792969 L 40.824219 69.910156 L 41.433594 70.519531 L 41.441406 71.210938 L 40.910156 71.714844 C 40.824219 72.1875 40.925781 72.585938 41.210938 72.910156 C 41.667969 73.296875 42.125 73.527344 42.582031 73.691406 C 43.550781 73.867188 44.121094 73.816406 44.570312 73.585938 C 44.484375 72.648438 44.316406 71.738281 43.785156 70.875 C 43.582031 70.6875 43.101562 70.453125 43.285156 69.839844 C 43.511719 69.414062 43.515625 68.988281 43.300781 68.5625 C 43.152344 67.96875 42.632812 67.464844 42.605469 66.613281 C 42.394531 65.5 42.292969 64.308594 42.378906 62.972656 C 42.972656 62.929688 43.464844 62.761719 43.914062 62.421875 C 44.25 62.230469 44.601562 62.328125 44.863281 62.65625 C 45.335938 62.828125 45.976562 62.574219 46.203125 62.148438 L 48.152344 59.605469 C 48.527344 59.023438 48.921875 58.558594 49.367188 58.351562 Z M 54.65625 28.230469 C 54.5 27.9375 54.214844 28.046875 54.125 28.402344 C 53.988281 28.945312 54.003906 29.46875 54.019531 29.972656 C 53.742188 29.554688 53.578125 28.933594 53.757812 27.941406 C 53.90625 27.464844 54.238281 27.1875 54.683594 27.539062 C 54.984375 27.847656 55.167969 28.230469 55.335938 28.734375 C 55.417969 29.089844 55.375 29.351562 55.265625 29.515625 C 55.09375 29.085938 54.929688 28.578125 54.65625 28.230469 Z M 55.988281 33.742188 C 56.222656 33.816406 56.363281 34.015625 56.417969 34.253906 C 56.433594 34.417969 56.402344 34.605469 56.308594 34.746094 C 56.1875 34.570312 56.03125 34.453125 55.789062 34.472656 C 55.601562 34.4375 55.351562 34.445312 55.222656 34.363281 C 55.03125 34.246094 54.929688 34.078125 54.917969 33.859375 C 54.890625 33.859375 54.925781 33.316406 54.960938 33.320312 C 55 33.324219 55.238281 33.578125 55.390625 33.65625 C 55.589844 33.714844 55.796875 33.722656 55.988281 33.742188 Z M 57.546875 28.082031 C 57.515625 28.929688 57.210938 29.582031 56.78125 30.144531 C 57.042969 29.4375 57.109375 28.726562 56.972656 28.019531 C 56.890625 27.757812 56.832031 27.46875 56.804688 27.148438 C 56.8125 26.902344 56.75 26.582031 56.699219 26.277344 C 57.226562 26.679688 57.582031 27.226562 57.546875 28.082031 Z M 54.082031 24.917969 C 54.511719 25.058594 54.921875 25.273438 55.292969 25.640625 C 55.804688 26.101562 56.3125 26.449219 56.441406 27.0625 C 56.605469 28.011719 56.257812 28.613281 55.742188 28.996094 C 56.152344 27.734375 55.902344 26.835938 55.125 26.257812 C 53.96875 25.210938 52.378906 25.0625 50.601562 25.320312 C 51.367188 24.910156 52.464844 24.710938 54.082031 24.917969 Z M 38.867188 34.707031 L 38.1875 33.964844 C 38.539062 34.003906 38.890625 33.992188 39.238281 33.863281 C 40.171875 33.507812 41.03125 32.945312 41.792969 32.078125 C 41.105469 33.394531 40.136719 34.285156 38.867188 34.707031 Z M 47.121094 58.089844 C 46.511719 59.066406 45.742188 59.699219 45.109375 59.953125 C 44.695312 59.953125 44.566406 60.023438 44.492188 60.28125 C 44.40625 60.453125 44.140625 60.484375 43.921875 60.375 C 43.566406 60.230469 43.214844 60.113281 42.859375 60.023438 C 43.050781 59.246094 43.167969 58.445312 43.136719 57.589844 C 43.109375 56.917969 43.15625 56.242188 43.273438 55.570312 L 43.773438 51.5 C 43.828125 51.5 44.992188 50.257812 44.992188 50.257812 C 45.628906 50.542969 45.894531 51.050781 45.792969 51.777344 C 46.089844 53.613281 46.863281 55.375 47.425781 56.425781 C 47.351562 56.726562 47.363281 56.984375 47.464844 57.203125 C 47.464844 57.507812 47.324219 57.800781 47.121094 58.089844 Z M 47.121094 58.089844 "/>
<path style=" stroke:none;fill-rule:nonzero;fill:rgb(100%,100%,100%);fill-opacity:1;" d="M 43.410156 10.203125 C 33.574219 10.203125 24.5 14.683594 18.507812 22.5 C 10.996094 26.148438 4.410156 30.875 0 35.824219 C 1.953125 35.84375 4 35.246094 6.214844 33.546875 C 9.597656 30.589844 12.976562 28.324219 16.359375 26.441406 C 19.972656 24.574219 23.476562 23.6875 26.859375 23.832031 C 28.226562 23.910156 29.472656 23.917969 30.148438 23.570312 C 31.347656 22.992188 31.542969 21.753906 30.949219 20.691406 C 29.804688 18.761719 26.453125 19.1875 24.058594 20.070312 C 22.65625 20.617188 21.28125 21.210938 19.925781 21.832031 C 25.777344 14.859375 34.253906 10.882812 43.410156 10.882812 C 60.332031 10.882812 74.097656 24.648438 74.097656 41.570312 C 74.097656 56.707031 63.265625 69.445312 48.347656 71.859375 L 48.453125 72.53125 C 63.707031 70.066406 74.777344 57.046875 74.777344 41.570312 C 74.777344 24.273438 60.707031 10.203125 43.410156 10.203125 Z M 43.410156 10.203125 "/>
<path style=" stroke:none;fill-rule:evenodd;fill:rgb(100%,100%,100%);fill-opacity:1;" d="M 65.730469 31.914062 L 58.5625 33.691406 L 58.347656 31.765625 Z M 65.730469 31.914062 "/>
</g>
</svg>
