<svg width="93" height="127" viewBox="0 0 93 127" fill="none" xmlns="http://www.w3.org/2000/svg">
<path fill-rule="evenodd" clip-rule="evenodd" d="M54.6352 7C54.9039 6.61255 55 6.26602 55 6C55 5.41813 54.54 4.45109 52.8205 3.51315C51.1765 2.61647 48.7689 2 46 2C43.2311 2 40.8235 2.61647 39.1795 3.51315C37.46 4.45109 37 5.41813 37 6C37 6.26602 37.0961 6.61255 37.3648 7H35.1521C35.0521 6.67479 35 6.34071 35 6C35 2.68629 39.9249 0 46 0C52.0751 0 57 2.68629 57 6C57 6.34071 56.9479 6.67479 56.8479 7H54.6352Z" fill="#8E8E8E"/>
<rect x="1" y="7" width="91" height="119" rx="23" stroke="#8E8E8E" stroke-width="2"/>
</svg>
