<?xml version="1.0" encoding="UTF-8"?>
<svg xmlns="http://www.w3.org/2000/svg" xmlns:xlink="http://www.w3.org/1999/xlink" width="203px" height="203px" viewBox="0 0 203 202" version="1.1">
<g id="surface1">
<rect x="0" y="0" width="203" height="202" style="fill:rgb(47.45098%,7.843137%,75.294118%);fill-opacity:1;stroke:none;"/>
<path style=" stroke:none;fill-rule:nonzero;fill:rgb(100%,100%,100%);fill-opacity:1;" d="M 76.394531 60.390625 C 73.847656 61.660156 70.628906 61.707031 67.164062 61.304688 C 60.113281 60.121094 52.558594 61.105469 44.4375 64.175781 C 35.988281 67.652344 26.316406 74.03125 15.878906 82.21875 C 22.105469 82.984375 28.019531 82.015625 33.480469 78.523438 C 37.496094 76.160156 41.484375 73.902344 45.347656 72.144531 C 54.003906 67.960938 61.824219 66.246094 68.949219 66.46875 C 71.34375 66.640625 73.738281 66.777344 76.132812 66.644531 C 78.664062 66.054688 80.429688 64.894531 80.515625 62.480469 C 80.511719 62.195312 80.488281 61.921875 80.453125 61.648438 C 81.351562 63.21875 82.046875 64.675781 82.191406 65.828125 C 82.402344 68.035156 81.230469 69.195312 79.105469 69.628906 C 76.46875 70.191406 73.554688 69.921875 70.585938 69.484375 C 65.566406 68.984375 60.1875 69.34375 54.277344 70.949219 C 47.277344 72.972656 39.910156 76.53125 32.242188 81.328125 C 34.25 82 36.257812 82.535156 38.265625 82.765625 C 41.816406 83.023438 45.273438 82.820312 48.382812 80.972656 C 54.625 77.203125 61.671875 74.59375 70.144531 74.039062 C 73.371094 73.515625 77.039062 74.1875 80.867188 74.554688 C 83.445312 74.753906 85.003906 73.597656 85.351562 71.214844 C 85.835938 71.949219 86.292969 72.800781 86.683594 73.90625 C 87 75.933594 85.542969 76.738281 83.511719 77.199219 C 81.757812 77.386719 79.925781 77.214844 78.078125 76.941406 C 73.710938 75.6875 69.40625 75.617188 65.152344 76.355469 C 58.988281 77.203125 53.03125 79.765625 47.21875 83.503906 C 50.4375 85.195312 53.960938 85.945312 57.878906 86.015625 C 59.101562 85.941406 60.632812 84.496094 62.214844 83.957031 C 67.441406 81.8125 72.464844 80.902344 77.34375 80.835938 C 79.925781 80.710938 82.472656 81.445312 84.984375 81.492188 C 87.472656 81.429688 89.472656 80.84375 89.738281 78.382812 L 90.621094 79.457031 C 93.683594 78.5 96.273438 76.507812 98.59375 73.820312 C 100.925781 71.488281 103.40625 67.953125 106.046875 65.355469 C 109.167969 62.339844 112.261719 60.117188 115.28125 59.632812 C 116.0625 56.148438 117.625 53.160156 119.832031 50.585938 C 122.355469 47.578125 125.851562 44.816406 127.503906 42.203125 C 129.644531 39.46875 127.949219 36.625 124.007812 37.597656 C 109.59375 41.84375 94.816406 49.964844 80.195312 60.457031 C 79.738281 58.871094 78.8125 57.453125 77.671875 55.953125 C 78.351562 57.671875 77.832031 59.5 76.394531 60.390625 Z M 76.394531 60.390625 "/>
<path style=" stroke:none;fill-rule:nonzero;fill:rgb(100%,100%,100%);fill-opacity:1;" d="M 70.550781 119.746094 L 69.171875 119.371094 C 68.773438 119.414062 68.375 119.566406 67.976562 119.824219 C 68.066406 124.640625 65.664062 128.09375 63.496094 131.535156 C 62.542969 132.777344 62.664062 133.921875 63.273438 135.023438 C 64.582031 137.039062 65.664062 139.230469 66.414062 141.6875 C 67.800781 143.242188 69.015625 145.253906 69.996094 147.660156 C 70.25 147.25 70.480469 146.808594 70.550781 146.171875 C 70.539062 145.785156 70.707031 145.375 71.285156 144.902344 C 71.964844 143.855469 71.511719 142.546875 70.648438 141.542969 C 69.347656 140.183594 68.625 138.660156 67.800781 136.972656 L 66.808594 135.21875 C 66.945312 134.78125 66.929688 134.257812 66.691406 133.820312 C 66.425781 133.5 66.425781 133.164062 66.6875 132.816406 C 66.949219 132.542969 67.0625 132.070312 67.007812 131.378906 C 67.125 130.96875 67.464844 130.671875 67.9375 130.542969 C 68.976562 129.992188 70.1875 129.46875 71.652344 128.988281 C 74.601562 128.089844 77.46875 126.125 80.203125 122.609375 C 78.164062 121.929688 75.996094 121.039062 73.816406 119.792969 C 72.875 120.128906 71.777344 119.976562 70.550781 119.746094 Z M 70.550781 119.746094 "/>
<path style=" stroke:none;fill-rule:nonzero;fill:rgb(100%,100%,100%);fill-opacity:1;" d="M 69.984375 118.824219 C 70.867188 119.171875 71.910156 119.335938 72.730469 119.304688 C 70.828125 118.328125 68.867188 117.175781 67.25 115.699219 L 67.839844 118.960938 L 68.667969 118.558594 C 68.972656 118.457031 69.394531 118.519531 69.984375 118.824219 Z M 69.984375 118.824219 "/>
<path style=" stroke:none;fill-rule:nonzero;fill:rgb(100%,100%,100%);fill-opacity:1;" d="M 119.308594 140.320312 C 120.027344 139.078125 120.578125 137.671875 120.761719 135.902344 C 120.730469 134.296875 120.207031 132.8125 119.460938 131.386719 C 118.59375 129.359375 119 126.332031 118.464844 123.902344 C 119.082031 118.855469 116.488281 114.5 118.847656 113.171875 C 121.457031 109.605469 122.488281 105.730469 121.710938 100.746094 C 122.429688 98.65625 122.53125 96.460938 121.289062 94.023438 C 121.164062 92.378906 121.320312 90.679688 122.085938 88.859375 C 119.429688 83.175781 122.304688 78.496094 127.699219 74.960938 C 122.800781 79.300781 120.847656 84.097656 124.464844 89.03125 C 125.25 89.609375 125.675781 90.539062 125.75 91.824219 C 125.980469 93.34375 126.394531 94.511719 126.984375 95.324219 C 127.363281 96.359375 127.25 97.148438 126.914062 97.828125 C 126.652344 99.152344 127.128906 99.988281 127.9375 100.601562 L 128.886719 101.976562 C 129.199219 103.535156 130.335938 103.628906 131.367188 103.582031 C 132.0625 103.273438 132.761719 103.316406 133.460938 103.714844 C 134.777344 104.027344 135.644531 103.714844 136.066406 102.785156 C 136.53125 102.039062 137.484375 101.480469 138.140625 100.542969 C 138.285156 98.425781 139.402344 97.347656 138.425781 96.109375 C 138.125 95.464844 138.535156 94.113281 138.800781 92.902344 C 139.757812 89.75 140.535156 86.578125 141.046875 83.363281 C 141.136719 82.269531 141.414062 81.453125 141.886719 81.054688 C 142.675781 79.539062 142.917969 78.1875 142.410156 77.460938 C 142.234375 76.667969 141.363281 76.1875 141.886719 75.082031 C 142.164062 74.21875 142.363281 73.351562 142.386719 72.488281 C 142.523438 71.867188 142.507812 71.25 142.386719 70.628906 C 142.351562 69.136719 142.546875 69.058594 143.175781 68.296875 C 143.542969 67.910156 143.886719 67.511719 143.988281 66.75 C 144.011719 65.941406 144.242188 64.820312 144.851562 64.203125 C 143.441406 63.96875 142.171875 64.332031 141.019531 65.179688 C 141.757812 67.203125 141.824219 69.328125 140.898438 71.605469 C 139.582031 74.484375 136.730469 75.96875 133.9375 77.058594 C 136.300781 75.265625 138.679688 73.183594 140.015625 70.75 C 142.085938 66.292969 139.375 61.332031 134.597656 60.195312 C 129.308594 57.074219 122.773438 57.273438 115.019531 60.828125 C 110.050781 63.402344 104.671875 68.71875 99.527344 74.988281 C 95.847656 78.984375 92.921875 80.976562 91.003906 80.300781 C 91.792969 82.792969 89.3125 83.816406 84.589844 83.835938 C 80.644531 83.203125 77.09375 82.867188 74.253906 83.058594 C 68.597656 83.597656 63.839844 85.03125 59.699219 87.078125 C 61.46875 88.246094 63.207031 89.363281 64.980469 89.980469 C 66.390625 90.523438 68.1875 90.660156 70.859375 89.210938 C 73.140625 88.410156 75.421875 87.703125 77.699219 87.3125 C 80.570312 86.832031 83.441406 86.453125 86.3125 86.792969 C 88.90625 87.191406 91.117188 87.199219 92.472656 86.359375 C 93.382812 85.964844 93.898438 85.195312 94.121094 83.839844 C 95.984375 85.933594 97.054688 86.679688 95.214844 88.617188 C 94.292969 89.46875 92.472656 89.703125 89.757812 89.316406 C 87.363281 88.84375 84.972656 88.695312 82.582031 88.773438 C 78.140625 89.09375 73.695312 90.101562 69.25 91.9375 C 70.875 93.183594 72.535156 94.339844 74.441406 94.898438 C 76.074219 95.46875 77.542969 95.226562 78.902344 94.429688 C 80.613281 93.710938 82.402344 93.15625 84.253906 92.714844 C 88.296875 91.796875 90.710938 92.335938 94.21875 92.976562 C 96.308594 92.871094 98.125 92.378906 98.96875 90.488281 C 99.320312 89.394531 99.195312 88.304688 98.582031 87.210938 C 101.277344 87.785156 102.390625 89.53125 101.5 91.886719 C 100.3125 93.679688 98.367188 94.148438 96.074219 94.019531 C 89.359375 93.675781 84.503906 94.566406 80.6875 96.144531 C 84.175781 97.683594 88.582031 97.898438 93.589844 97.101562 C 89.261719 98.730469 84.9375 99.40625 80.234375 97.730469 C 78.527344 97.089844 76.613281 96.65625 74.492188 96.429688 C 71.316406 95.429688 68.820312 94.113281 67.023438 92.429688 C 64.148438 90.925781 63.960938 91.164062 61.625 91.601562 C 58.257812 92.144531 55.5625 93.195312 53.847656 94.976562 C 52.679688 95.726562 52.488281 97.648438 50.988281 97.914062 C 48.160156 98.65625 44.84375 98.4375 41.460938 98.078125 C 37.613281 97.664062 34.042969 97.964844 30.785156 99.070312 C 30.84375 94.246094 31.351562 89.433594 32.339844 84.75 L 30.726562 84.414062 C 29.675781 89.414062 29.136719 94.5625 29.121094 99.71875 C 28.902344 99.816406 28.679688 99.902344 28.464844 100.007812 C 23.113281 102.324219 19.207031 106.925781 18.949219 111.804688 C 18.996094 117.195312 22.011719 119.769531 26.332031 119.933594 C 22.902344 118.421875 21.878906 116.171875 23.265625 113.191406 C 24.117188 111.492188 26.511719 110.558594 29.824219 110.082031 C 30.152344 112.488281 30.582031 114.863281 31.136719 117.210938 C 34.609375 132.789062 42.347656 145.949219 53.203125 156.757812 L 50.496094 160.9375 L 55.226562 159.382812 L 55.179688 164.644531 L 58.15625 160.597656 L 63.765625 167.394531 L 60.644531 159.675781 L 65.902344 161.519531 L 60.984375 156.8125 L 64.742188 152.875 C 64.871094 152.613281 64.792969 152.394531 64.5 152.214844 C 63.753906 151.804688 63.730469 151.148438 63.960938 150.402344 C 64.375 149.382812 64.378906 148.550781 64.15625 147.828125 L 63.164062 148.605469 C 62.792969 148.878906 62.632812 149.488281 62.644531 150.351562 C 62.609375 151.492188 63.121094 152.851562 63.027344 153.625 L 60.351562 153.605469 L 61.539062 147.382812 C 61.539062 147.382812 58.347656 152 58.296875 151.660156 C 58.25 151.320312 56.886719 148.847656 56.886719 148.847656 L 55.863281 152.003906 C 45.515625 142.910156 38.703125 133.386719 34.636719 123.53125 C 33.132812 119.09375 32.078125 114.496094 31.445312 109.804688 C 35.417969 108.792969 39.386719 106.722656 43.355469 103.578125 C 44.671875 102.308594 46.105469 101.132812 47.976562 100.140625 C 49.300781 99.679688 50.496094 100.152344 49.726562 102.039062 C 48.914062 106.136719 48.832031 109.964844 50.054688 113.324219 C 51.539062 117 53.628906 119.933594 55.945312 122.59375 C 57.15625 124.0625 57.269531 125.601562 56.804688 127.003906 C 56.359375 128.453125 55.847656 129.777344 55.308594 131.046875 C 54.304688 133.277344 54.664062 134.40625 55.65625 135.175781 C 56.585938 135.730469 57.339844 136.40625 58.597656 138.058594 C 61.1875 140.621094 63.613281 143.300781 64.652344 146.679688 C 65.214844 148.011719 65.078125 149.214844 64.621094 150.359375 C 63.378906 151.691406 66.300781 151.503906 66.097656 153.074219 C 65.871094 153.59375 65.042969 153.199219 64.652344 154.175781 C 63.890625 155.015625 63.769531 156.042969 63.9375 157.160156 C 64.410156 159.578125 65.59375 160.882812 67.367188 161.273438 C 70.015625 161.328125 70.0625 160.066406 70.296875 156.148438 C 70.78125 154.722656 70.917969 153.238281 70.289062 151.628906 C 70.519531 149.917969 68.722656 146.957031 67.367188 144.507812 C 65.59375 142.03125 63.914062 139.539062 62.773438 136.761719 C 60.597656 132.933594 63.460938 130.507812 65.277344 127.082031 C 66.859375 123.585938 67.269531 119.507812 66.707031 114.945312 C 71.808594 118.5625 76.90625 120.714844 82.007812 122.203125 C 87.601562 123.332031 92.46875 123.097656 96.460938 121.210938 L 97.523438 121.527344 C 97.507812 127.484375 97.414062 133.519531 98.132812 138.746094 C 98.113281 142.027344 98.386719 144.6875 98.945312 146.726562 C 99.050781 151.914062 97.910156 157.050781 98.992188 161.621094 L 99.003906 165.429688 L 98.660156 168.117188 L 100.132812 169.585938 L 100.152344 171.242188 L 98.863281 172.460938 C 98.660156 173.597656 98.90625 174.554688 99.597656 175.332031 C 100.699219 176.257812 101.800781 176.816406 102.90625 177.210938 C 105.242188 177.636719 106.625 177.507812 107.714844 176.957031 C 107.503906 174.703125 107.097656 172.507812 105.816406 170.433594 C 105.324219 169.984375 104.160156 169.421875 104.601562 167.949219 C 105.148438 166.925781 105.164062 165.898438 104.640625 164.875 C 104.28125 163.445312 103.03125 162.238281 102.964844 160.1875 C 102.457031 157.511719 102.207031 154.644531 102.410156 151.4375 C 103.847656 151.328125 105.042969 150.925781 106.125 150.105469 C 106.933594 149.652344 107.789062 149.886719 108.421875 150.675781 C 109.566406 151.085938 111.113281 150.480469 111.65625 149.449219 L 116.371094 143.335938 C 117.269531 141.9375 118.230469 140.820312 119.308594 140.320312 Z M 132.089844 67.890625 C 131.710938 67.183594 131.023438 67.441406 130.804688 68.300781 C 130.472656 69.609375 130.511719 70.859375 130.546875 72.078125 C 129.878906 71.074219 129.484375 69.578125 129.914062 67.191406 C 130.273438 66.042969 131.074219 65.382812 132.15625 66.222656 C 132.878906 66.96875 133.320312 67.890625 133.726562 69.097656 C 133.925781 69.949219 133.824219 70.585938 133.558594 70.972656 C 133.144531 69.949219 132.746094 68.726562 132.089844 67.890625 Z M 135.308594 81.144531 C 135.871094 81.316406 136.214844 81.796875 136.34375 82.371094 C 136.382812 82.765625 136.308594 83.21875 136.078125 83.5625 C 135.785156 83.132812 135.40625 82.855469 134.828125 82.902344 C 134.367188 82.8125 133.765625 82.832031 133.453125 82.636719 C 132.992188 82.351562 132.75 81.949219 132.71875 81.425781 C 132.648438 81.425781 132.734375 80.121094 132.828125 80.128906 C 132.917969 80.140625 133.492188 80.742188 133.863281 80.929688 C 134.34375 81.078125 134.84375 81.097656 135.308594 81.144531 Z M 139.070312 67.535156 C 138.992188 69.566406 138.257812 71.136719 137.222656 72.488281 C 137.855469 70.785156 138.011719 69.082031 137.6875 67.378906 C 137.480469 66.75 137.34375 66.050781 137.277344 65.285156 C 137.300781 64.695312 137.144531 63.925781 137.019531 63.191406 C 138.300781 64.164062 139.15625 65.472656 139.070312 67.535156 Z M 130.703125 59.921875 C 131.738281 60.265625 132.730469 60.773438 133.628906 61.660156 C 134.859375 62.765625 136.09375 63.601562 136.402344 65.082031 C 136.796875 67.363281 135.957031 68.8125 134.707031 69.730469 C 135.703125 66.699219 135.097656 64.535156 133.21875 63.140625 C 130.421875 60.628906 126.585938 60.269531 122.28125 60.890625 C 124.132812 59.90625 126.792969 59.425781 130.703125 59.921875 Z M 93.929688 83.464844 L 92.289062 81.675781 C 93.132812 81.773438 93.984375 81.742188 94.828125 81.429688 C 97.082031 80.578125 99.160156 79.226562 101 77.140625 C 99.335938 80.300781 97 82.445312 93.929688 83.464844 Z M 113.878906 139.6875 C 112.402344 142.039062 110.542969 143.566406 109.015625 144.171875 C 108.015625 144.175781 107.699219 144.339844 107.519531 144.957031 C 107.316406 145.371094 106.675781 145.453125 106.144531 145.1875 C 105.289062 144.835938 104.433594 144.554688 103.578125 144.347656 C 104.035156 142.472656 104.324219 140.542969 104.246094 138.492188 C 104.179688 136.871094 104.292969 135.253906 104.582031 133.632812 L 105.785156 123.847656 C 105.917969 123.847656 108.730469 120.855469 108.730469 120.855469 C 110.265625 121.539062 110.914062 122.761719 110.667969 124.515625 C 111.386719 128.925781 113.253906 133.160156 114.613281 135.695312 C 114.429688 136.410156 114.464844 137.03125 114.710938 137.558594 C 114.703125 138.292969 114.363281 139 113.878906 139.6875 Z M 113.878906 139.6875 "/>
<path style=" stroke:none;fill-rule:nonzero;fill:rgb(100%,100%,100%);fill-opacity:1;" d="M 104.914062 24.535156 C 81.140625 24.535156 59.210938 35.316406 44.726562 54.105469 C 26.574219 62.878906 10.65625 74.246094 0 86.144531 C 4.71875 86.199219 9.667969 84.761719 15.023438 80.667969 C 23.191406 73.566406 31.363281 68.113281 39.535156 63.582031 C 48.265625 59.09375 56.730469 56.96875 64.914062 57.3125 C 68.214844 57.5 71.226562 57.511719 72.863281 56.679688 C 75.753906 55.292969 76.230469 52.3125 74.789062 49.757812 C 72.03125 45.121094 63.933594 46.140625 58.136719 48.265625 C 54.753906 49.582031 51.425781 51.003906 48.152344 52.503906 C 62.292969 35.738281 82.78125 26.175781 104.914062 26.175781 C 145.800781 26.175781 179.066406 59.277344 179.066406 99.964844 C 179.066406 136.371094 152.894531 167.003906 116.835938 172.804688 L 117.097656 174.421875 C 153.960938 168.492188 180.710938 137.179688 180.710938 99.964844 C 180.714844 58.375 146.710938 24.535156 104.914062 24.535156 Z M 104.914062 24.535156 "/>
<path style=" stroke:none;fill-rule:evenodd;fill:rgb(100%,100%,100%);fill-opacity:1;" d="M 158.847656 76.742188 L 141.523438 81.019531 L 141.003906 76.390625 Z M 158.847656 76.742188 "/>
</g>
</svg>
