<?xml version="1.0" encoding="UTF-8" standalone="no"?>
<svg
   xmlns:dc="http://purl.org/dc/elements/1.1/"
   xmlns:cc="http://creativecommons.org/ns#"
   xmlns:rdf="http://www.w3.org/1999/02/22-rdf-syntax-ns#"
   xmlns:svg="http://www.w3.org/2000/svg"
   xmlns="http://www.w3.org/2000/svg"
   xmlns:sodipodi="http://sodipodi.sourceforge.net/DTD/sodipodi-0.dtd"
   xmlns:inkscape="http://www.inkscape.org/namespaces/inkscape"
   version="1.1"
   id="svg32"
   xml:space="preserve"
   width="32"
   height="44"
   viewBox="0 0 32 44"
   sodipodi:docname="pod_reservoir_mask.svg"
   inkscape:version="1.0.1 (c497b03c, 2020-09-10)"><metadata
     id="metadata38"><rdf:RDF><cc:Work
         rdf:about=""><dc:format>image/svg+xml</dc:format><dc:type
           rdf:resource="http://purl.org/dc/dcmitype/StillImage" /><dc:title></dc:title></cc:Work></rdf:RDF></metadata><defs
     id="defs36"><clipPath
       clipPathUnits="userSpaceOnUse"
       id="clipPath28"><path
         d="M 0,0 H 24 V 33 H 0 Z"
         id="path26" /></clipPath></defs><sodipodi:namedview
     pagecolor="#ffffff"
     bordercolor="#666666"
     borderopacity="1"
     objecttolerance="10"
     gridtolerance="10"
     guidetolerance="10"
     inkscape:pageopacity="0"
     inkscape:pageshadow="2"
     inkscape:window-width="1360"
     inkscape:window-height="980"
     id="namedview34"
     showgrid="false"
     inkscape:zoom="10.663844"
     inkscape:cx="19.290876"
     inkscape:cy="25.479921"
     inkscape:window-x="456"
     inkscape:window-y="47"
     inkscape:window-maximized="0"
     inkscape:current-layer="g40" /><g
     id="g40"
     inkscape:groupmode="layer"
     inkscape:label="pod_reservoir"
     transform="matrix(1.3333333,0,0,-1.3333333,0,44)"><g
       id="g22"
       transform="matrix(1.003125,0,0,1.0055209,-0.05625005,-0.12114637)"><g
         id="g24"
         clip-path="url(#clipPath28)"><path
           d="m 8.618593,7.666666 c -1.034477,0 -1.988282,-0.532107 -2.534345,-1.394602 -2.453613,1.805689 -4.049173,4.702706 -4.074339,7.974816 -0.00527,0.68814 -0.00845,1.41292 -0.00951,2.17436 L 2,17 c 8e-6,5.03036 0.088374,8.87645 0.260959,11.55934 l 1.53e-4,0.0024 0.020999,0.31444 1.44e-4,0.0021 C 2.351461,29.8629 3.128783,30.64995 4.11272,30.7312 6.26562,30.909 8.891449,31 12,31 c 2.88399,0 5.3534,-0.07832 7.41565,-0.2318 l 0.0039,-2.9e-4 0.4677,-0.03671 0.0034,-2.8e-4 c 0.98302,-0.08285 1.75903,-0.87026 1.82721,-1.85475 0.17917,-2.58705 0.27461,-6.33797 0.28169,-11.27757 L 22,16.99858 C 22,16.21971 21.9979,15.4774 21.9936,14.77159 L 21.99,14.24578 C 21.95426,9.652506 18.82171,5.801649 14.58371,4.670362 c -0.016,0.067902 -0.03197,0.12666 -0.04547,0.174136 -0.05668,0.19919 -0.12487,0.383123 -0.1814,0.524389 C 14.29866,5.514278 14.24201,5.64126 14.2004,5.73114 14.17925,5.776831 14.16112,5.814817 14.14747,5.842983 l -0.01715,0.035065 -0.0058,0.011804 -0.0022,0.0044 -9.1e-4,0.00182 -5.9e-4,0.00119 -0.05552,0.11104 C 13.55712,7.02466 12.51833,7.666664 11.38202,7.666664 H 8.618643 Z"
           style="fill:#000000;fill-opacity:1;fill-rule:evenodd;stroke:none"
           id="path30" /></g></g></g></svg>
