<?xml version="1.0" encoding="UTF-8"?>
<svg xmlns="http://www.w3.org/2000/svg" xmlns:xlink="http://www.w3.org/1999/xlink" width="36px" height="36px" viewBox="0 0 36 36" version="1.1">
<g id="surface1">
<rect x="0" y="0" width="36" height="36" style="fill:rgb(47.45098%,7.843137%,75.294118%);fill-opacity:1;stroke:none;"/>
<path style=" stroke:none;fill-rule:nonzero;fill:rgb(100%,100%,100%);fill-opacity:1;" d="M 13.546875 10.761719 C 13.097656 10.988281 12.523438 10.996094 11.910156 10.925781 C 10.660156 10.714844 9.320312 10.890625 7.878906 11.4375 C 6.382812 12.054688 4.667969 13.195312 2.816406 14.652344 C 3.921875 14.789062 4.96875 14.617188 5.9375 13.996094 C 6.648438 13.574219 7.355469 13.171875 8.042969 12.859375 C 9.578125 12.113281 10.964844 11.804688 12.226562 11.847656 C 12.652344 11.875 13.078125 11.902344 13.5 11.878906 C 13.949219 11.773438 14.261719 11.566406 14.277344 11.136719 C 14.277344 11.085938 14.273438 11.035156 14.265625 10.988281 C 14.425781 11.265625 14.550781 11.527344 14.574219 11.730469 C 14.613281 12.125 14.40625 12.332031 14.027344 12.410156 C 13.5625 12.507812 13.042969 12.460938 12.515625 12.382812 C 11.628906 12.292969 10.671875 12.359375 9.625 12.644531 C 8.382812 13.003906 7.078125 13.640625 5.71875 14.492188 C 6.074219 14.613281 6.429688 14.710938 6.785156 14.75 C 7.414062 14.796875 8.027344 14.761719 8.578125 14.429688 C 9.6875 13.757812 10.9375 13.292969 12.4375 13.195312 C 13.011719 13.101562 13.664062 13.222656 14.339844 13.285156 C 14.796875 13.324219 15.074219 13.117188 15.136719 12.691406 C 15.222656 12.824219 15.304688 12.976562 15.371094 13.171875 C 15.429688 13.53125 15.171875 13.675781 14.808594 13.757812 C 14.5 13.792969 14.175781 13.761719 13.847656 13.710938 C 13.070312 13.488281 12.308594 13.476562 11.554688 13.609375 C 10.460938 13.757812 9.40625 14.214844 8.375 14.882812 C 8.945312 15.183594 9.570312 15.316406 10.265625 15.328125 C 10.480469 15.316406 10.753906 15.058594 11.03125 14.964844 C 11.960938 14.582031 12.851562 14.417969 13.714844 14.40625 C 14.175781 14.382812 14.625 14.515625 15.070312 14.523438 C 15.511719 14.511719 15.867188 14.40625 15.914062 13.96875 L 16.070312 14.160156 C 16.613281 13.988281 17.074219 13.636719 17.484375 13.15625 C 17.898438 12.742188 18.339844 12.109375 18.804688 11.648438 C 19.359375 11.109375 19.910156 10.714844 20.445312 10.628906 C 20.582031 10.007812 20.859375 9.472656 21.25 9.015625 C 21.699219 8.480469 22.316406 7.988281 22.613281 7.519531 C 22.992188 7.035156 22.691406 6.527344 21.992188 6.699219 C 19.433594 7.457031 16.816406 8.90625 14.222656 10.773438 C 14.140625 10.492188 13.976562 10.238281 13.773438 9.972656 C 13.894531 10.277344 13.804688 10.605469 13.546875 10.761719 Z M 13.546875 10.761719 "/>
<path style=" stroke:none;fill-rule:nonzero;fill:rgb(100%,100%,100%);fill-opacity:1;" d="M 12.511719 21.339844 L 12.265625 21.273438 C 12.195312 21.28125 12.125 21.308594 12.054688 21.355469 C 12.070312 22.214844 11.644531 22.828125 11.261719 23.441406 C 11.089844 23.664062 11.113281 23.867188 11.222656 24.0625 C 11.453125 24.421875 11.644531 24.8125 11.777344 25.25 C 12.023438 25.527344 12.238281 25.886719 12.414062 26.316406 C 12.457031 26.242188 12.5 26.164062 12.511719 26.050781 C 12.507812 25.980469 12.539062 25.910156 12.640625 25.824219 C 12.761719 25.636719 12.683594 25.40625 12.527344 25.226562 C 12.296875 24.984375 12.167969 24.710938 12.023438 24.410156 L 11.847656 24.097656 C 11.871094 24.019531 11.871094 23.925781 11.828125 23.847656 C 11.78125 23.792969 11.78125 23.730469 11.828125 23.671875 C 11.871094 23.621094 11.894531 23.539062 11.882812 23.414062 C 11.902344 23.339844 11.964844 23.289062 12.046875 23.265625 C 12.230469 23.167969 12.445312 23.074219 12.707031 22.988281 C 13.230469 22.828125 13.738281 22.476562 14.222656 21.851562 C 13.863281 21.730469 13.476562 21.570312 13.089844 21.347656 C 12.921875 21.410156 12.730469 21.382812 12.511719 21.339844 Z M 12.511719 21.339844 "/>
<path style=" stroke:none;fill-rule:nonzero;fill:rgb(100%,100%,100%);fill-opacity:1;" d="M 12.410156 21.175781 C 12.566406 21.238281 12.753906 21.269531 12.898438 21.261719 C 12.5625 21.089844 12.214844 20.882812 11.925781 20.621094 L 12.03125 21.199219 L 12.175781 21.128906 C 12.230469 21.113281 12.304688 21.121094 12.410156 21.175781 Z M 12.410156 21.175781 "/>
<path style=" stroke:none;fill-rule:nonzero;fill:rgb(100%,100%,100%);fill-opacity:1;" d="M 21.15625 25.007812 C 21.285156 24.785156 21.382812 24.535156 21.417969 24.21875 C 21.410156 23.933594 21.316406 23.667969 21.183594 23.414062 C 21.03125 23.054688 21.101562 22.515625 21.007812 22.082031 C 21.117188 21.183594 20.65625 20.40625 21.078125 20.167969 C 21.539062 19.535156 21.722656 18.84375 21.585938 17.953125 C 21.710938 17.582031 21.730469 17.191406 21.507812 16.757812 C 21.488281 16.464844 21.515625 16.160156 21.652344 15.835938 C 21.179688 14.824219 21.691406 13.988281 22.644531 13.359375 C 21.777344 14.132812 21.429688 14.988281 22.074219 15.867188 C 22.210938 15.96875 22.289062 16.136719 22.300781 16.363281 C 22.339844 16.636719 22.414062 16.84375 22.519531 16.988281 C 22.585938 17.171875 22.566406 17.3125 22.507812 17.433594 C 22.460938 17.671875 22.546875 17.820312 22.6875 17.929688 L 22.855469 18.171875 C 22.910156 18.453125 23.113281 18.46875 23.296875 18.460938 C 23.421875 18.40625 23.542969 18.414062 23.667969 18.484375 C 23.902344 18.539062 24.054688 18.484375 24.128906 18.316406 C 24.210938 18.183594 24.382812 18.085938 24.496094 17.917969 C 24.523438 17.542969 24.722656 17.347656 24.546875 17.128906 C 24.496094 17.015625 24.566406 16.773438 24.613281 16.554688 C 24.785156 15.996094 24.921875 15.429688 25.011719 14.855469 C 25.027344 14.660156 25.078125 14.515625 25.160156 14.445312 C 25.300781 14.175781 25.34375 13.933594 25.253906 13.804688 C 25.222656 13.664062 25.070312 13.578125 25.160156 13.382812 C 25.210938 13.226562 25.246094 13.074219 25.25 12.917969 C 25.273438 12.808594 25.273438 12.699219 25.25 12.585938 C 25.246094 12.320312 25.28125 12.308594 25.390625 12.171875 C 25.457031 12.101562 25.515625 12.03125 25.535156 11.894531 C 25.539062 11.753906 25.582031 11.550781 25.6875 11.441406 C 25.4375 11.402344 25.214844 11.464844 25.007812 11.617188 C 25.140625 11.976562 25.152344 12.355469 24.988281 12.761719 C 24.753906 13.273438 24.246094 13.539062 23.753906 13.734375 C 24.171875 13.414062 24.59375 13.042969 24.832031 12.609375 C 25.199219 11.816406 24.714844 10.929688 23.871094 10.726562 C 22.929688 10.171875 21.773438 10.207031 20.398438 10.839844 C 19.515625 11.300781 18.5625 12.246094 17.648438 13.363281 C 16.996094 14.078125 16.480469 14.429688 16.136719 14.3125 C 16.277344 14.753906 15.839844 14.9375 15 14.941406 C 14.300781 14.828125 13.671875 14.769531 13.167969 14.800781 C 12.164062 14.898438 11.320312 15.152344 10.585938 15.519531 C 10.902344 15.726562 11.207031 15.925781 11.523438 16.035156 C 11.773438 16.132812 12.09375 16.15625 12.566406 15.898438 C 12.972656 15.757812 13.375 15.628906 13.78125 15.5625 C 14.289062 15.476562 14.796875 15.40625 15.304688 15.46875 C 15.765625 15.539062 16.160156 15.539062 16.398438 15.390625 C 16.5625 15.320312 16.652344 15.183594 16.691406 14.941406 C 17.023438 15.316406 17.210938 15.449219 16.886719 15.792969 C 16.722656 15.945312 16.398438 15.988281 15.917969 15.917969 C 15.492188 15.832031 15.070312 15.808594 14.644531 15.820312 C 13.855469 15.878906 13.070312 16.058594 12.28125 16.386719 C 12.570312 16.605469 12.863281 16.8125 13.203125 16.914062 C 13.492188 17.015625 13.75 16.972656 13.992188 16.828125 C 14.296875 16.699219 14.613281 16.601562 14.941406 16.523438 C 15.660156 16.359375 16.085938 16.457031 16.710938 16.570312 C 17.078125 16.550781 17.402344 16.464844 17.550781 16.125 C 17.613281 15.933594 17.589844 15.738281 17.484375 15.542969 C 17.960938 15.644531 18.15625 15.957031 18 16.375 C 17.789062 16.695312 17.445312 16.777344 17.039062 16.753906 C 15.847656 16.695312 14.984375 16.851562 14.308594 17.132812 C 14.929688 17.410156 15.707031 17.449219 16.597656 17.304688 C 15.828125 17.59375 15.0625 17.714844 14.230469 17.417969 C 13.925781 17.304688 13.585938 17.226562 13.210938 17.183594 C 12.648438 17.007812 12.203125 16.773438 11.886719 16.472656 C 11.375 16.203125 11.34375 16.246094 10.929688 16.324219 C 10.332031 16.421875 9.851562 16.609375 9.550781 16.925781 C 9.34375 17.058594 9.308594 17.402344 9.042969 17.449219 C 8.539062 17.582031 7.953125 17.542969 7.351562 17.480469 C 6.671875 17.40625 6.039062 17.460938 5.460938 17.65625 C 5.46875 16.796875 5.558594 15.9375 5.734375 15.105469 L 5.449219 15.042969 C 5.261719 15.933594 5.167969 16.851562 5.164062 17.773438 C 5.125 17.789062 5.085938 17.804688 5.046875 17.824219 C 4.097656 18.234375 3.40625 19.054688 3.359375 19.925781 C 3.367188 20.886719 3.902344 21.34375 4.667969 21.375 C 4.0625 21.105469 3.878906 20.703125 4.125 20.171875 C 4.277344 19.871094 4.703125 19.703125 5.289062 19.617188 C 5.347656 20.046875 5.421875 20.472656 5.523438 20.890625 C 6.136719 23.664062 7.507812 26.011719 9.433594 27.9375 L 8.953125 28.683594 L 9.792969 28.40625 L 9.785156 29.34375 L 10.3125 28.621094 L 11.308594 29.832031 L 10.753906 28.457031 L 11.6875 28.785156 L 10.816406 27.945312 L 11.480469 27.246094 C 11.503906 27.199219 11.488281 27.160156 11.4375 27.128906 C 11.304688 27.054688 11.300781 26.9375 11.34375 26.804688 C 11.417969 26.621094 11.417969 26.476562 11.378906 26.347656 L 11.203125 26.484375 C 11.136719 26.53125 11.105469 26.640625 11.109375 26.796875 C 11.101562 27 11.195312 27.242188 11.175781 27.378906 L 10.703125 27.375 L 10.914062 26.265625 C 10.914062 26.265625 10.347656 27.089844 10.339844 27.027344 C 10.328125 26.96875 10.089844 26.527344 10.089844 26.527344 L 9.90625 27.089844 C 8.070312 25.46875 6.863281 23.773438 6.140625 22.015625 C 5.875 21.226562 5.6875 20.40625 5.578125 19.570312 C 6.28125 19.390625 6.984375 19.019531 7.6875 18.460938 C 7.921875 18.234375 8.175781 18.023438 8.507812 17.847656 C 8.742188 17.765625 8.953125 17.847656 8.816406 18.183594 C 8.675781 18.914062 8.660156 19.597656 8.875 20.195312 C 9.140625 20.851562 9.511719 21.375 9.921875 21.847656 C 10.136719 22.109375 10.15625 22.382812 10.074219 22.632812 C 9.996094 22.894531 9.902344 23.128906 9.808594 23.355469 C 9.628906 23.753906 9.695312 23.953125 9.871094 24.089844 C 10.035156 24.191406 10.167969 24.308594 10.390625 24.605469 C 10.851562 25.0625 11.28125 25.539062 11.464844 26.140625 C 11.566406 26.378906 11.539062 26.59375 11.460938 26.796875 C 11.238281 27.035156 11.757812 27 11.722656 27.28125 C 11.679688 27.371094 11.535156 27.300781 11.464844 27.476562 C 11.332031 27.625 11.308594 27.808594 11.339844 28.007812 C 11.421875 28.441406 11.632812 28.671875 11.945312 28.742188 C 12.417969 28.75 12.425781 28.527344 12.464844 27.828125 C 12.550781 27.574219 12.578125 27.308594 12.464844 27.023438 C 12.507812 26.71875 12.1875 26.191406 11.945312 25.753906 C 11.632812 25.3125 11.335938 24.867188 11.132812 24.375 C 10.746094 23.691406 11.253906 23.257812 11.578125 22.648438 C 11.855469 22.027344 11.929688 21.296875 11.828125 20.484375 C 12.734375 21.128906 13.636719 21.511719 14.542969 21.777344 C 15.535156 21.980469 16.398438 21.9375 17.105469 21.601562 L 17.292969 21.660156 C 17.292969 22.71875 17.273438 23.796875 17.402344 24.726562 C 17.398438 25.3125 17.449219 25.785156 17.546875 26.148438 C 17.566406 27.074219 17.363281 27.988281 17.554688 28.804688 L 17.558594 29.484375 L 17.496094 29.960938 L 17.757812 30.222656 L 17.761719 30.519531 L 17.53125 30.734375 C 17.496094 30.9375 17.539062 31.109375 17.664062 31.246094 C 17.859375 31.414062 18.054688 31.511719 18.25 31.582031 C 18.664062 31.65625 18.910156 31.636719 19.101562 31.535156 C 19.066406 31.136719 18.992188 30.746094 18.765625 30.375 C 18.679688 30.292969 18.472656 30.195312 18.550781 29.933594 C 18.648438 29.75 18.648438 29.566406 18.558594 29.382812 C 18.492188 29.128906 18.273438 28.914062 18.261719 28.546875 C 18.167969 28.070312 18.125 27.5625 18.160156 26.988281 C 18.417969 26.96875 18.628906 26.898438 18.820312 26.75 C 18.964844 26.671875 19.117188 26.710938 19.226562 26.851562 C 19.429688 26.925781 19.703125 26.816406 19.800781 26.632812 L 20.636719 25.546875 C 20.796875 25.296875 20.964844 25.097656 21.15625 25.007812 Z M 23.425781 12.097656 C 23.359375 11.972656 23.234375 12.019531 23.195312 12.171875 C 23.136719 12.40625 23.144531 12.628906 23.152344 12.847656 C 23.03125 12.667969 22.960938 12.398438 23.039062 11.976562 C 23.101562 11.769531 23.246094 11.652344 23.4375 11.800781 C 23.566406 11.933594 23.644531 12.097656 23.714844 12.316406 C 23.75 12.464844 23.730469 12.578125 23.683594 12.648438 C 23.613281 12.464844 23.542969 12.25 23.425781 12.097656 Z M 23.996094 14.460938 C 24.09375 14.492188 24.15625 14.578125 24.179688 14.679688 C 24.1875 14.75 24.171875 14.832031 24.132812 14.890625 C 24.078125 14.816406 24.011719 14.765625 23.910156 14.773438 C 23.828125 14.757812 23.722656 14.761719 23.667969 14.726562 C 23.585938 14.675781 23.542969 14.605469 23.535156 14.511719 C 23.523438 14.511719 23.539062 14.277344 23.554688 14.28125 C 23.570312 14.28125 23.671875 14.390625 23.738281 14.421875 C 23.824219 14.449219 23.914062 14.453125 23.996094 14.460938 Z M 24.664062 12.035156 C 24.648438 12.398438 24.519531 12.675781 24.335938 12.917969 C 24.449219 12.617188 24.476562 12.3125 24.417969 12.007812 C 24.382812 11.894531 24.355469 11.773438 24.34375 11.636719 C 24.347656 11.53125 24.320312 11.394531 24.300781 11.261719 C 24.527344 11.433594 24.679688 11.667969 24.664062 12.035156 Z M 23.179688 10.679688 C 23.363281 10.738281 23.539062 10.832031 23.699219 10.988281 C 23.917969 11.1875 24.132812 11.335938 24.191406 11.597656 C 24.257812 12.003906 24.109375 12.261719 23.890625 12.425781 C 24.066406 11.886719 23.957031 11.5 23.625 11.253906 C 23.128906 10.804688 22.449219 10.742188 21.6875 10.851562 C 22.015625 10.675781 22.484375 10.589844 23.179688 10.679688 Z M 16.65625 14.875 L 16.367188 14.554688 C 16.515625 14.574219 16.667969 14.566406 16.816406 14.511719 C 17.214844 14.359375 17.585938 14.121094 17.910156 13.746094 C 17.617188 14.3125 17.203125 14.691406 16.65625 14.875 Z M 20.195312 24.894531 C 19.933594 25.3125 19.605469 25.585938 19.332031 25.695312 C 19.15625 25.695312 19.097656 25.722656 19.066406 25.835938 C 19.03125 25.90625 18.917969 25.921875 18.824219 25.875 C 18.671875 25.8125 18.519531 25.761719 18.367188 25.726562 C 18.449219 25.390625 18.5 25.046875 18.488281 24.679688 C 18.476562 24.394531 18.496094 24.105469 18.546875 23.816406 L 18.761719 22.070312 C 18.785156 22.070312 19.28125 21.539062 19.28125 21.539062 C 19.554688 21.660156 19.667969 21.878906 19.625 22.191406 C 19.753906 22.976562 20.085938 23.730469 20.324219 24.183594 C 20.292969 24.3125 20.300781 24.421875 20.34375 24.515625 C 20.339844 24.648438 20.28125 24.773438 20.195312 24.894531 Z M 20.195312 24.894531 "/>
<path style=" stroke:none;fill-rule:nonzero;fill:rgb(100%,100%,100%);fill-opacity:1;" d="M 18.605469 4.371094 C 14.390625 4.371094 10.5 6.292969 7.933594 9.644531 C 4.710938 11.207031 1.890625 13.230469 0 15.351562 C 0.835938 15.363281 1.714844 15.105469 2.664062 14.375 C 4.113281 13.109375 5.5625 12.140625 7.011719 11.332031 C 8.558594 10.53125 10.0625 10.152344 11.511719 10.214844 C 12.097656 10.246094 12.632812 10.25 12.921875 10.101562 C 13.433594 9.855469 13.519531 9.324219 13.261719 8.867188 C 12.773438 8.042969 11.335938 8.222656 10.308594 8.601562 C 9.710938 8.835938 9.121094 9.089844 8.539062 9.355469 C 11.046875 6.367188 14.679688 4.664062 18.605469 4.664062 C 25.855469 4.664062 31.753906 10.5625 31.753906 17.816406 C 31.753906 24.304688 27.113281 29.761719 20.71875 30.796875 L 20.765625 31.085938 C 27.304688 30.027344 32.046875 24.449219 32.046875 17.816406 C 32.046875 10.402344 26.015625 4.371094 18.605469 4.371094 Z M 18.605469 4.371094 "/>
<path style=" stroke:none;fill-rule:evenodd;fill:rgb(100%,100%,100%);fill-opacity:1;" d="M 28.167969 13.675781 L 25.097656 14.4375 L 25.003906 13.613281 Z M 28.167969 13.675781 "/>
</g>
</svg>
