<?xml version="1.0" encoding="UTF-8"?>
<svg xmlns="http://www.w3.org/2000/svg" xmlns:xlink="http://www.w3.org/1999/xlink" width="44px" height="44px" viewBox="0 0 44 44" version="1.1">
<g id="surface1">
<rect x="0" y="0" width="44" height="44" style="fill:rgb(47.45098%,7.843137%,75.294118%);fill-opacity:1;stroke:none;"/>
<path style=" stroke:none;fill-rule:nonzero;fill:rgb(100%,100%,100%);fill-opacity:1;" d="M 16.558594 13.152344 C 16.007812 13.429688 15.308594 13.441406 14.558594 13.355469 C 13.027344 13.09375 11.390625 13.308594 9.632812 13.980469 C 7.800781 14.734375 5.703125 16.125 3.441406 17.910156 C 4.792969 18.074219 6.074219 17.863281 7.257812 17.105469 C 8.128906 16.589844 8.992188 16.097656 9.828125 15.714844 C 11.703125 14.804688 13.398438 14.429688 14.945312 14.476562 C 15.464844 14.515625 15.984375 14.546875 16.5 14.515625 C 17.050781 14.386719 17.433594 14.136719 17.453125 13.609375 C 17.449219 13.546875 17.445312 13.488281 17.4375 13.429688 C 17.632812 13.769531 17.785156 14.085938 17.816406 14.339844 C 17.859375 14.820312 17.605469 15.070312 17.144531 15.167969 C 16.574219 15.289062 15.941406 15.230469 15.300781 15.136719 C 14.210938 15.027344 13.046875 15.105469 11.765625 15.453125 C 10.246094 15.894531 8.652344 16.671875 6.988281 17.714844 C 7.421875 17.863281 7.859375 17.976562 8.292969 18.027344 C 9.0625 18.085938 9.8125 18.039062 10.488281 17.636719 C 11.839844 16.816406 13.367188 16.246094 15.203125 16.128906 C 15.902344 16.011719 16.699219 16.160156 17.527344 16.238281 C 18.085938 16.285156 18.425781 16.03125 18.5 15.511719 C 18.605469 15.671875 18.703125 15.859375 18.789062 16.097656 C 18.855469 16.539062 18.542969 16.714844 18.101562 16.816406 C 17.71875 16.855469 17.324219 16.820312 16.921875 16.757812 C 15.976562 16.484375 15.042969 16.472656 14.121094 16.632812 C 12.785156 16.816406 11.496094 17.375 10.234375 18.1875 C 10.933594 18.558594 11.695312 18.71875 12.546875 18.738281 C 12.808594 18.71875 13.140625 18.40625 13.484375 18.289062 C 14.617188 17.820312 15.707031 17.621094 16.765625 17.609375 C 17.324219 17.582031 17.875 17.742188 18.421875 17.75 C 18.960938 17.738281 19.394531 17.609375 19.449219 17.074219 L 19.640625 17.308594 C 20.304688 17.097656 20.867188 16.664062 21.371094 16.078125 C 21.875 15.570312 22.414062 14.800781 22.984375 14.234375 C 23.664062 13.578125 24.332031 13.09375 24.988281 12.988281 C 25.15625 12.230469 25.496094 11.578125 25.972656 11.019531 C 26.519531 10.363281 27.277344 9.761719 27.636719 9.191406 C 28.101562 8.597656 27.734375 7.976562 26.878906 8.191406 C 23.753906 9.113281 20.550781 10.882812 17.382812 13.167969 C 17.28125 12.824219 17.082031 12.515625 16.835938 12.1875 C 16.980469 12.5625 16.871094 12.960938 16.558594 13.152344 Z M 16.558594 13.152344 "/>
<path style=" stroke:none;fill-rule:nonzero;fill:rgb(100%,100%,100%);fill-opacity:1;" d="M 15.292969 26.082031 L 14.992188 26 C 14.90625 26.011719 14.820312 26.042969 14.734375 26.101562 C 14.753906 27.148438 14.230469 27.902344 13.761719 28.652344 C 13.554688 28.921875 13.582031 29.171875 13.714844 29.410156 C 13.996094 29.851562 14.230469 30.328125 14.394531 30.863281 C 14.695312 31.203125 14.960938 31.640625 15.171875 32.164062 C 15.226562 32.074219 15.277344 31.976562 15.292969 31.839844 C 15.289062 31.753906 15.324219 31.667969 15.449219 31.5625 C 15.597656 31.335938 15.5 31.050781 15.3125 30.832031 C 15.03125 30.535156 14.875 30.203125 14.695312 29.835938 L 14.480469 29.453125 C 14.511719 29.359375 14.507812 29.246094 14.453125 29.148438 C 14.398438 29.078125 14.398438 29.007812 14.453125 28.929688 C 14.511719 28.871094 14.535156 28.769531 14.523438 28.617188 C 14.550781 28.527344 14.621094 28.464844 14.726562 28.433594 C 14.949219 28.316406 15.214844 28.203125 15.53125 28.097656 C 16.171875 27.902344 16.789062 27.472656 17.382812 26.707031 C 16.941406 26.558594 16.472656 26.363281 16 26.09375 C 15.796875 26.167969 15.558594 26.132812 15.292969 26.082031 Z M 15.292969 26.082031 "/>
<path style=" stroke:none;fill-rule:nonzero;fill:rgb(100%,100%,100%);fill-opacity:1;" d="M 15.167969 25.882812 C 15.359375 25.957031 15.585938 25.996094 15.765625 25.988281 C 15.351562 25.773438 14.925781 25.523438 14.578125 25.203125 L 14.703125 25.914062 L 14.882812 25.824219 C 14.949219 25.804688 15.042969 25.816406 15.167969 25.882812 Z M 15.167969 25.882812 "/>
<path style=" stroke:none;fill-rule:nonzero;fill:rgb(100%,100%,100%);fill-opacity:1;" d="M 25.859375 30.5625 C 26.015625 30.292969 26.136719 29.988281 26.175781 29.601562 C 26.167969 29.253906 26.054688 28.929688 25.894531 28.621094 C 25.703125 28.175781 25.792969 27.519531 25.675781 26.988281 C 25.8125 25.890625 25.25 24.941406 25.761719 24.652344 C 26.324219 23.875 26.550781 23.03125 26.378906 21.945312 C 26.535156 21.488281 26.558594 21.011719 26.289062 20.480469 C 26.261719 20.121094 26.296875 19.753906 26.460938 19.355469 C 25.886719 18.117188 26.507812 17.097656 27.679688 16.328125 C 26.617188 17.273438 26.195312 18.316406 26.976562 19.394531 C 27.148438 19.519531 27.242188 19.722656 27.253906 20 C 27.304688 20.332031 27.394531 20.585938 27.523438 20.765625 C 27.605469 20.988281 27.582031 21.160156 27.507812 21.308594 C 27.453125 21.597656 27.554688 21.78125 27.730469 21.914062 L 27.9375 22.210938 C 28.003906 22.550781 28.25 22.574219 28.472656 22.5625 C 28.625 22.496094 28.777344 22.503906 28.929688 22.589844 C 29.210938 22.660156 29.402344 22.589844 29.492188 22.390625 C 29.59375 22.226562 29.800781 22.105469 29.941406 21.902344 C 29.972656 21.4375 30.214844 21.203125 30.003906 20.933594 C 29.9375 20.792969 30.027344 20.5 30.085938 20.234375 C 30.292969 19.550781 30.460938 18.859375 30.570312 18.160156 C 30.589844 17.921875 30.652344 17.742188 30.753906 17.65625 C 30.925781 17.324219 30.976562 17.03125 30.867188 16.871094 C 30.828125 16.699219 30.640625 16.59375 30.753906 16.355469 C 30.8125 16.167969 30.855469 15.976562 30.863281 15.789062 C 30.890625 15.65625 30.886719 15.519531 30.863281 15.386719 C 30.855469 15.058594 30.898438 15.042969 31.03125 14.875 C 31.113281 14.792969 31.1875 14.707031 31.210938 14.539062 C 31.214844 14.363281 31.265625 14.121094 31.394531 13.984375 C 31.089844 13.933594 30.816406 14.011719 30.566406 14.199219 C 30.726562 14.636719 30.738281 15.101562 30.539062 15.597656 C 30.253906 16.222656 29.636719 16.546875 29.03125 16.785156 C 29.542969 16.394531 30.058594 15.941406 30.347656 15.410156 C 30.796875 14.441406 30.210938 13.359375 29.175781 13.113281 C 28.027344 12.429688 26.609375 12.476562 24.929688 13.25 C 23.851562 13.808594 22.6875 14.96875 21.574219 16.332031 C 20.773438 17.203125 20.140625 17.636719 19.726562 17.492188 C 19.894531 18.035156 19.359375 18.257812 18.335938 18.261719 C 17.480469 18.125 16.710938 18.050781 16.09375 18.089844 C 14.867188 18.210938 13.835938 18.523438 12.941406 18.96875 C 13.324219 19.222656 13.699219 19.464844 14.085938 19.601562 C 14.390625 19.71875 14.78125 19.746094 15.359375 19.433594 C 15.851562 19.257812 16.347656 19.101562 16.839844 19.019531 C 17.464844 18.914062 18.085938 18.832031 18.707031 18.90625 C 19.269531 18.992188 19.75 18.996094 20.042969 18.8125 C 20.242188 18.726562 20.351562 18.558594 20.402344 18.261719 C 20.804688 18.71875 21.035156 18.882812 20.636719 19.304688 C 20.4375 19.488281 20.042969 19.539062 19.453125 19.453125 C 18.9375 19.351562 18.417969 19.320312 17.898438 19.335938 C 16.9375 19.40625 15.972656 19.625 15.007812 20.027344 C 15.363281 20.296875 15.722656 20.550781 16.136719 20.671875 C 16.488281 20.796875 16.808594 20.742188 17.101562 20.570312 C 17.472656 20.414062 17.859375 20.292969 18.261719 20.195312 C 19.136719 19.996094 19.660156 20.113281 20.421875 20.253906 C 20.875 20.230469 21.269531 20.121094 21.453125 19.710938 C 21.527344 19.472656 21.5 19.234375 21.367188 18.996094 C 21.953125 19.121094 22.191406 19.5 22 20.015625 C 21.742188 20.40625 21.320312 20.507812 20.824219 20.480469 C 19.367188 20.40625 18.316406 20.597656 17.488281 20.941406 C 18.246094 21.277344 19.199219 21.324219 20.285156 21.152344 C 19.347656 21.503906 18.410156 21.652344 17.390625 21.289062 C 17.019531 21.148438 16.605469 21.054688 16.144531 21.003906 C 15.457031 20.785156 14.917969 20.5 14.527344 20.132812 C 13.902344 19.804688 13.863281 19.859375 13.359375 19.953125 C 12.628906 20.070312 12.042969 20.300781 11.671875 20.6875 C 11.417969 20.851562 11.378906 21.269531 11.050781 21.328125 C 10.4375 21.488281 9.71875 21.441406 8.988281 21.363281 C 8.152344 21.273438 7.378906 21.339844 6.671875 21.582031 C 6.683594 20.527344 6.796875 19.480469 7.007812 18.460938 L 6.660156 18.386719 C 6.433594 19.476562 6.316406 20.597656 6.3125 21.722656 C 6.265625 21.742188 6.214844 21.761719 6.167969 21.785156 C 5.007812 22.289062 4.164062 23.289062 4.105469 24.355469 C 4.117188 25.527344 4.769531 26.089844 5.707031 26.125 C 4.964844 25.792969 4.742188 25.304688 5.042969 24.65625 C 5.226562 24.285156 5.746094 24.082031 6.464844 23.980469 C 6.535156 24.503906 6.628906 25.019531 6.75 25.53125 C 7.5 28.925781 9.179688 31.789062 11.53125 34.144531 L 10.945312 35.054688 L 11.96875 34.71875 L 11.960938 35.863281 L 12.605469 34.980469 L 13.820312 36.460938 L 13.144531 34.78125 L 14.285156 35.183594 L 13.21875 34.15625 L 14.03125 33.300781 C 14.0625 33.242188 14.042969 33.195312 13.980469 33.15625 C 13.820312 33.066406 13.8125 32.921875 13.863281 32.761719 C 13.953125 32.539062 13.953125 32.359375 13.90625 32.199219 L 13.691406 32.371094 C 13.609375 32.429688 13.574219 32.5625 13.578125 32.75 C 13.570312 33 13.683594 33.292969 13.660156 33.464844 L 13.082031 33.457031 L 13.339844 32.105469 C 13.339844 32.105469 12.644531 33.109375 12.636719 33.035156 C 12.625 32.960938 12.332031 32.421875 12.332031 32.421875 L 12.109375 33.109375 C 9.867188 31.128906 8.386719 29.054688 7.507812 26.90625 C 7.183594 25.941406 6.953125 24.941406 6.816406 23.917969 C 7.675781 23.699219 8.539062 23.246094 9.398438 22.5625 C 9.683594 22.285156 9.992188 22.03125 10.398438 21.8125 C 10.6875 21.710938 10.945312 21.816406 10.777344 22.226562 C 10.601562 23.117188 10.585938 23.953125 10.847656 24.683594 C 11.171875 25.484375 11.625 26.125 12.125 26.703125 C 12.386719 27.023438 12.414062 27.359375 12.3125 27.664062 C 12.214844 27.980469 12.105469 28.269531 11.988281 28.542969 C 11.769531 29.03125 11.847656 29.277344 12.0625 29.445312 C 12.265625 29.566406 12.429688 29.710938 12.699219 30.070312 C 13.261719 30.628906 13.789062 31.214844 14.011719 31.949219 C 14.136719 32.238281 14.105469 32.503906 14.007812 32.75 C 13.738281 33.042969 14.371094 33 14.328125 33.34375 C 14.277344 33.457031 14.097656 33.371094 14.011719 33.582031 C 13.847656 33.765625 13.820312 33.988281 13.859375 34.234375 C 13.960938 34.757812 14.21875 35.042969 14.601562 35.128906 C 15.175781 35.140625 15.1875 34.867188 15.238281 34.011719 C 15.339844 33.703125 15.371094 33.378906 15.234375 33.027344 C 15.285156 32.65625 14.894531 32.011719 14.601562 31.476562 C 14.21875 30.9375 13.851562 30.394531 13.605469 29.789062 C 13.136719 28.957031 13.753906 28.429688 14.148438 27.679688 C 14.492188 26.921875 14.582031 26.03125 14.457031 25.039062 C 15.5625 25.824219 16.667969 26.292969 17.773438 26.617188 C 18.988281 26.863281 20.042969 26.8125 20.90625 26.402344 L 21.136719 26.472656 C 21.136719 27.769531 21.113281 29.082031 21.269531 30.222656 C 21.265625 30.9375 21.324219 31.515625 21.445312 31.960938 C 21.46875 33.089844 21.222656 34.210938 21.457031 35.203125 L 21.460938 36.035156 L 21.382812 36.621094 L 21.703125 36.9375 L 21.707031 37.300781 L 21.429688 37.566406 C 21.386719 37.8125 21.4375 38.023438 21.585938 38.191406 C 21.828125 38.394531 22.066406 38.515625 22.304688 38.601562 C 22.8125 38.691406 23.109375 38.664062 23.347656 38.546875 C 23.300781 38.054688 23.214844 37.578125 22.9375 37.125 C 22.828125 37.027344 22.578125 36.902344 22.671875 36.582031 C 22.792969 36.359375 22.792969 36.136719 22.679688 35.914062 C 22.601562 35.601562 22.332031 35.339844 22.316406 34.894531 C 22.207031 34.308594 22.152344 33.683594 22.199219 32.988281 C 22.507812 32.960938 22.769531 32.875 23.003906 32.695312 C 23.179688 32.597656 23.363281 32.648438 23.5 32.820312 C 23.75 32.910156 24.082031 32.777344 24.203125 32.554688 L 25.222656 31.222656 C 25.417969 30.917969 25.625 30.675781 25.859375 30.5625 Z M 28.628906 14.789062 C 28.546875 14.632812 28.398438 14.691406 28.351562 14.878906 C 28.28125 15.164062 28.289062 15.433594 28.296875 15.699219 C 28.152344 15.480469 28.066406 15.15625 28.160156 14.636719 C 28.238281 14.386719 28.410156 14.242188 28.644531 14.425781 C 28.800781 14.585938 28.898438 14.789062 28.984375 15.050781 C 29.027344 15.238281 29.007812 15.375 28.949219 15.460938 C 28.859375 15.234375 28.773438 14.96875 28.628906 14.789062 Z M 29.328125 17.675781 C 29.449219 17.710938 29.523438 17.816406 29.550781 17.941406 C 29.558594 18.027344 29.542969 18.125 29.496094 18.203125 C 29.429688 18.109375 29.347656 18.046875 29.222656 18.058594 C 29.125 18.039062 28.992188 18.042969 28.925781 18 C 28.824219 17.9375 28.773438 17.851562 28.765625 17.738281 C 28.75 17.738281 28.769531 17.453125 28.789062 17.453125 C 28.808594 17.457031 28.933594 17.585938 29.015625 17.628906 C 29.121094 17.660156 29.226562 17.664062 29.328125 17.675781 Z M 30.144531 14.710938 C 30.125 15.152344 29.96875 15.496094 29.742188 15.789062 C 29.878906 15.417969 29.914062 15.046875 29.84375 14.675781 C 29.800781 14.539062 29.769531 14.386719 29.753906 14.21875 C 29.761719 14.09375 29.726562 13.925781 29.699219 13.765625 C 29.976562 13.976562 30.160156 14.261719 30.144531 14.710938 Z M 28.328125 13.050781 C 28.554688 13.125 28.769531 13.238281 28.964844 13.429688 C 29.230469 13.671875 29.496094 13.855469 29.566406 14.175781 C 29.648438 14.671875 29.46875 14.988281 29.199219 15.1875 C 29.414062 14.527344 29.28125 14.058594 28.875 13.753906 C 28.269531 13.207031 27.4375 13.128906 26.503906 13.261719 C 26.90625 13.046875 27.480469 12.945312 28.328125 13.050781 Z M 20.359375 18.179688 L 20.003906 17.789062 C 20.1875 17.8125 20.371094 17.804688 20.554688 17.738281 C 21.042969 17.550781 21.492188 17.257812 21.890625 16.804688 C 21.53125 17.492188 21.023438 17.957031 20.359375 18.179688 Z M 24.683594 30.425781 C 24.363281 30.9375 23.960938 31.273438 23.628906 31.402344 C 23.410156 31.40625 23.34375 31.441406 23.304688 31.574219 C 23.261719 31.664062 23.121094 31.683594 23.007812 31.625 C 22.820312 31.546875 22.636719 31.488281 22.449219 31.441406 C 22.550781 31.035156 22.613281 30.613281 22.59375 30.167969 C 22.582031 29.8125 22.605469 29.460938 22.667969 29.109375 L 22.929688 26.976562 C 22.957031 26.976562 23.566406 26.324219 23.566406 26.324219 C 23.898438 26.472656 24.039062 26.738281 23.988281 27.121094 C 24.144531 28.082031 24.546875 29.003906 24.84375 29.558594 C 24.804688 29.714844 24.808594 29.847656 24.863281 29.964844 C 24.863281 30.125 24.789062 30.277344 24.683594 30.425781 Z M 24.683594 30.425781 "/>
<path style=" stroke:none;fill-rule:nonzero;fill:rgb(100%,100%,100%);fill-opacity:1;" d="M 22.738281 5.34375 C 17.585938 5.34375 12.832031 7.691406 9.695312 11.785156 C 5.761719 13.695312 2.308594 16.171875 0 18.765625 C 1.023438 18.777344 2.09375 18.460938 3.257812 17.570312 C 5.027344 16.023438 6.796875 14.835938 8.570312 13.847656 C 10.460938 12.871094 12.296875 12.410156 14.070312 12.484375 C 14.785156 12.523438 15.4375 12.527344 15.792969 12.347656 C 16.417969 12.042969 16.523438 11.394531 16.210938 10.839844 C 15.613281 9.828125 13.855469 10.050781 12.601562 10.511719 C 11.867188 10.800781 11.148438 11.109375 10.4375 11.4375 C 13.503906 7.785156 17.941406 5.703125 22.738281 5.703125 C 31.601562 5.703125 38.8125 12.910156 38.8125 21.773438 C 38.8125 29.703125 33.140625 36.375 25.324219 37.640625 L 25.382812 37.992188 C 33.371094 36.703125 39.167969 29.878906 39.167969 21.773438 C 39.167969 12.714844 31.800781 5.34375 22.738281 5.34375 Z M 22.738281 5.34375 "/>
<path style=" stroke:none;fill-rule:evenodd;fill:rgb(100%,100%,100%);fill-opacity:1;" d="M 34.429688 16.714844 L 30.675781 17.648438 L 30.5625 16.640625 Z M 34.429688 16.714844 "/>
</g>
</svg>
