<?xml version="1.0" encoding="UTF-8"?>
<svg xmlns="http://www.w3.org/2000/svg" xmlns:xlink="http://www.w3.org/1999/xlink" width="240px" height="240px" viewBox="0 0 240 240" version="1.1">
<g id="surface1">
<rect x="0" y="0" width="240" height="240" style="fill:rgb(47.45098%,7.843137%,75.294118%);fill-opacity:1;stroke:none;"/>
<path style=" stroke:none;fill-rule:nonzero;fill:rgb(100%,100%,100%);fill-opacity:1;" d="M 90.316406 71.75 C 87.308594 73.261719 83.5 73.3125 79.40625 72.839844 C 71.070312 71.429688 62.136719 72.601562 52.539062 76.25 C 42.550781 80.378906 31.109375 87.960938 18.773438 97.6875 C 26.132812 98.59375 33.128906 97.445312 39.582031 93.296875 C 44.332031 90.488281 49.046875 87.804688 53.609375 85.71875 C 63.84375 80.746094 73.09375 78.707031 81.519531 78.972656 C 84.347656 79.175781 87.175781 79.339844 90.007812 79.179688 C 93 78.480469 95.089844 77.105469 95.191406 74.234375 C 95.1875 73.898438 95.15625 73.570312 95.117188 73.246094 C 96.179688 75.113281 97.003906 76.84375 97.171875 78.210938 C 97.421875 80.835938 96.035156 82.210938 93.523438 82.730469 C 90.40625 83.394531 86.960938 83.078125 83.449219 82.558594 C 77.519531 81.964844 71.15625 82.386719 64.171875 84.292969 C 55.894531 86.699219 47.183594 90.929688 38.121094 96.625 C 40.492188 97.425781 42.867188 98.0625 45.238281 98.335938 C 49.441406 98.644531 53.523438 98.402344 57.199219 96.203125 C 64.582031 91.726562 72.910156 88.625 82.929688 87.964844 C 86.746094 87.347656 91.082031 88.144531 95.609375 88.578125 C 98.65625 88.816406 100.496094 87.441406 100.910156 84.609375 C 101.480469 85.484375 102.019531 86.496094 102.480469 87.808594 C 102.855469 90.21875 101.136719 91.175781 98.734375 91.722656 C 96.65625 91.945312 94.496094 91.742188 92.308594 91.414062 C 87.144531 89.925781 82.058594 89.839844 77.027344 90.722656 C 69.738281 91.726562 62.699219 94.769531 55.824219 99.210938 C 59.628906 101.222656 63.796875 102.113281 68.429688 102.199219 C 69.875 102.105469 71.6875 100.390625 73.554688 99.753906 C 79.734375 97.203125 85.671875 96.121094 91.441406 96.042969 C 94.492188 95.894531 97.503906 96.765625 100.472656 96.824219 C 103.414062 96.746094 105.78125 96.050781 106.09375 93.128906 L 107.136719 94.40625 C 110.761719 93.265625 113.824219 90.902344 116.5625 87.707031 C 119.324219 84.9375 122.257812 80.738281 125.375 77.652344 C 129.066406 74.066406 132.722656 71.425781 136.292969 70.851562 C 137.21875 66.710938 139.0625 63.160156 141.671875 60.101562 C 144.65625 56.527344 148.789062 53.246094 150.742188 50.140625 C 153.273438 46.894531 151.269531 43.511719 146.609375 44.671875 C 129.570312 49.71875 112.097656 59.363281 94.8125 71.828125 C 94.269531 69.945312 93.175781 68.261719 91.828125 66.476562 C 92.628906 68.523438 92.019531 70.695312 90.316406 71.75 Z M 90.316406 71.75 "/>
<path style=" stroke:none;fill-rule:nonzero;fill:rgb(100%,100%,100%);fill-opacity:1;" d="M 83.410156 142.273438 L 81.78125 141.824219 C 81.308594 141.878906 80.839844 142.058594 80.367188 142.367188 C 80.472656 148.089844 77.628906 152.191406 75.070312 156.277344 C 73.941406 157.753906 74.085938 159.117188 74.804688 160.425781 C 76.351562 162.816406 77.628906 165.421875 78.519531 168.34375 C 80.160156 170.191406 81.59375 172.578125 82.753906 175.4375 C 83.054688 174.949219 83.324219 174.425781 83.410156 173.667969 C 83.394531 173.210938 83.597656 172.726562 84.277344 172.164062 C 85.082031 170.914062 84.546875 169.363281 83.523438 168.167969 C 81.988281 166.554688 81.132812 164.746094 80.15625 162.742188 L 78.988281 160.65625 C 79.148438 160.136719 79.128906 159.515625 78.84375 158.996094 C 78.53125 158.613281 78.53125 158.214844 78.84375 157.800781 C 79.148438 157.476562 79.285156 156.914062 79.222656 156.09375 C 79.359375 155.605469 79.761719 155.253906 80.320312 155.101562 C 81.546875 154.445312 82.980469 153.824219 84.710938 153.253906 C 88.199219 152.1875 91.585938 149.851562 94.820312 145.675781 C 92.410156 144.867188 89.847656 143.808594 87.269531 142.328125 C 86.15625 142.726562 84.863281 142.546875 83.410156 142.273438 Z M 83.410156 142.273438 "/>
<path style=" stroke:none;fill-rule:nonzero;fill:rgb(100%,100%,100%);fill-opacity:1;" d="M 82.738281 141.179688 C 83.785156 141.589844 85.019531 141.785156 85.984375 141.746094 C 83.738281 140.585938 81.421875 139.222656 79.507812 137.464844 L 80.203125 141.339844 L 81.183594 140.863281 C 81.542969 140.742188 82.042969 140.816406 82.738281 141.179688 Z M 82.738281 141.179688 "/>
<path style=" stroke:none;fill-rule:nonzero;fill:rgb(100%,100%,100%);fill-opacity:1;" d="M 141.054688 166.714844 C 141.902344 165.242188 142.554688 163.570312 142.773438 161.464844 C 142.734375 159.5625 142.117188 157.800781 141.234375 156.105469 C 140.207031 153.695312 140.6875 150.097656 140.058594 147.210938 C 140.785156 141.214844 137.71875 136.039062 140.511719 134.460938 C 143.59375 130.226562 144.816406 125.621094 143.894531 119.695312 C 144.742188 117.21875 144.867188 114.609375 143.398438 111.710938 C 143.25 109.757812 143.429688 107.738281 144.335938 105.578125 C 141.195312 98.820312 144.597656 93.261719 150.972656 89.0625 C 145.183594 94.21875 142.875 99.914062 147.152344 105.78125 C 148.078125 106.464844 148.585938 107.570312 148.667969 109.097656 C 148.945312 110.90625 149.429688 112.292969 150.128906 113.257812 C 150.574219 114.488281 150.445312 115.425781 150.046875 116.234375 C 149.738281 117.804688 150.300781 118.796875 151.257812 119.527344 L 152.378906 121.160156 C 152.746094 123.011719 154.09375 123.121094 155.308594 123.070312 C 156.132812 122.699219 156.960938 122.75 157.789062 123.226562 C 159.339844 123.597656 160.367188 123.226562 160.863281 122.121094 C 161.414062 121.234375 162.542969 120.570312 163.320312 119.457031 C 163.488281 116.941406 164.8125 115.664062 163.660156 114.191406 C 163.296875 113.425781 163.78125 111.816406 164.101562 110.378906 C 165.234375 106.636719 166.152344 102.867188 166.757812 99.046875 C 166.859375 97.746094 167.1875 96.773438 167.746094 96.304688 C 168.679688 94.503906 168.964844 92.898438 168.367188 92.035156 C 168.160156 91.089844 167.132812 90.515625 167.746094 89.207031 C 168.074219 88.179688 168.3125 87.148438 168.339844 86.125 C 168.5 85.390625 168.480469 84.652344 168.339844 83.917969 C 168.296875 82.144531 168.53125 82.050781 169.273438 81.144531 C 169.707031 80.683594 170.113281 80.210938 170.230469 79.308594 C 170.261719 78.347656 170.535156 77.015625 171.253906 76.28125 C 169.585938 76.003906 168.085938 76.433594 166.722656 77.441406 C 167.597656 79.84375 167.671875 82.371094 166.582031 85.078125 C 165.023438 88.496094 161.652344 90.257812 158.351562 91.554688 C 161.144531 89.421875 163.957031 86.949219 165.539062 84.0625 C 167.984375 78.765625 164.777344 72.871094 159.132812 71.519531 C 152.875 67.808594 145.148438 68.046875 135.980469 72.269531 C 130.109375 75.328125 123.75 81.648438 117.667969 89.09375 C 113.316406 93.84375 109.859375 96.210938 107.589844 95.410156 C 108.527344 98.367188 105.589844 99.582031 100.003906 99.605469 C 95.34375 98.855469 91.148438 98.457031 87.789062 98.683594 C 81.097656 99.324219 75.476562 101.027344 70.578125 103.460938 C 72.675781 104.84375 74.726562 106.175781 76.824219 106.90625 C 78.488281 107.554688 80.617188 107.714844 83.777344 105.992188 C 86.472656 105.042969 89.167969 104.199219 91.863281 103.738281 C 95.257812 103.164062 98.648438 102.714844 102.042969 103.121094 C 105.113281 103.59375 107.722656 103.605469 109.328125 102.605469 C 110.40625 102.136719 111.011719 101.222656 111.277344 99.613281 C 113.480469 102.097656 114.746094 102.988281 112.566406 105.289062 C 111.476562 106.300781 109.328125 106.574219 106.117188 106.117188 C 103.289062 105.554688 100.460938 105.378906 97.632812 105.472656 C 92.378906 105.855469 87.128906 107.054688 81.871094 109.234375 C 83.792969 110.710938 85.757812 112.089844 88.007812 112.75 C 89.941406 113.429688 91.675781 113.140625 93.28125 112.191406 C 95.304688 111.339844 97.421875 110.683594 99.609375 110.15625 C 104.390625 109.066406 107.242188 109.707031 111.394531 110.46875 C 113.859375 110.34375 116.007812 109.757812 117.007812 107.507812 C 117.425781 106.214844 117.273438 104.917969 116.550781 103.621094 C 119.738281 104.296875 121.050781 106.371094 120 109.171875 C 118.597656 111.300781 116.292969 111.859375 113.585938 111.703125 C 105.648438 111.296875 99.90625 112.355469 95.394531 114.230469 C 99.519531 116.058594 104.726562 116.316406 110.648438 115.371094 C 105.53125 117.300781 100.421875 118.109375 94.859375 116.117188 C 92.839844 115.355469 90.574219 114.839844 88.070312 114.566406 C 84.3125 113.382812 81.363281 111.816406 79.238281 109.816406 C 75.839844 108.03125 75.621094 108.316406 72.859375 108.832031 C 68.875 109.480469 65.6875 110.726562 63.664062 112.84375 C 62.28125 113.734375 62.058594 116.015625 60.28125 116.335938 C 56.9375 117.21875 53.019531 116.957031 49.019531 116.527344 C 44.46875 116.035156 40.246094 116.394531 36.394531 117.710938 C 36.464844 111.972656 37.066406 106.257812 38.234375 100.695312 L 36.328125 100.296875 C 35.082031 106.234375 34.445312 112.351562 34.429688 118.480469 C 34.167969 118.59375 33.90625 118.695312 33.652344 118.820312 C 27.324219 121.570312 22.707031 127.039062 22.402344 132.839844 C 22.460938 139.242188 26.027344 142.300781 31.132812 142.496094 C 27.078125 140.699219 25.867188 138.027344 27.503906 134.484375 C 28.515625 132.464844 31.34375 131.355469 35.261719 130.792969 C 35.648438 133.648438 36.160156 136.472656 36.8125 139.261719 C 40.914062 157.769531 50.0625 173.402344 62.902344 186.246094 L 59.699219 191.210938 L 65.292969 189.367188 L 65.238281 195.617188 L 68.753906 190.808594 L 75.390625 198.882812 L 71.699219 189.714844 L 77.914062 191.90625 L 72.101562 186.3125 L 76.539062 181.636719 C 76.695312 181.324219 76.601562 181.0625 76.253906 180.847656 C 75.375 180.363281 75.34375 179.582031 75.621094 178.695312 C 76.109375 177.484375 76.113281 176.496094 75.847656 175.636719 L 74.675781 176.5625 C 74.238281 176.882812 74.046875 177.609375 74.0625 178.636719 C 74.023438 179.988281 74.628906 181.605469 74.515625 182.527344 L 71.347656 182.5 L 72.753906 175.109375 C 72.753906 175.109375 68.980469 180.59375 68.921875 180.191406 C 68.867188 179.789062 67.253906 176.847656 67.253906 176.847656 L 66.042969 180.597656 C 53.8125 169.792969 45.757812 158.480469 40.949219 146.769531 C 39.171875 141.5 37.925781 136.035156 37.179688 130.464844 C 41.871094 129.257812 46.566406 126.800781 51.257812 123.0625 C 52.8125 121.554688 54.511719 120.160156 56.722656 118.980469 C 58.285156 118.433594 59.699219 118.992188 58.789062 121.234375 C 57.828125 126.101562 57.730469 130.652344 59.179688 134.644531 C 60.929688 139.011719 63.40625 142.496094 66.140625 145.65625 C 67.574219 147.402344 67.707031 149.230469 67.160156 150.894531 C 66.632812 152.617188 66.027344 154.191406 65.386719 155.699219 C 64.203125 158.347656 64.628906 159.691406 65.796875 160.605469 C 66.898438 161.265625 67.792969 162.070312 69.277344 164.03125 C 72.339844 167.074219 75.207031 170.257812 76.433594 174.273438 C 77.101562 175.855469 76.9375 177.285156 76.402344 178.644531 C 74.929688 180.226562 78.382812 180.003906 78.144531 181.871094 C 77.875 182.484375 76.894531 182.015625 76.433594 183.179688 C 75.539062 184.175781 75.394531 185.398438 75.59375 186.726562 C 76.152344 189.597656 77.550781 191.148438 79.644531 191.613281 C 82.777344 191.675781 82.832031 190.175781 83.109375 185.523438 C 83.679688 183.828125 83.84375 182.066406 83.101562 180.15625 C 83.375 178.121094 81.25 174.601562 79.644531 171.691406 C 77.546875 168.746094 75.5625 165.789062 74.214844 162.488281 C 71.644531 157.941406 75.027344 155.0625 77.175781 150.992188 C 79.042969 146.835938 79.527344 141.988281 78.863281 136.570312 C 84.894531 140.863281 90.925781 143.421875 96.957031 145.191406 C 103.570312 146.535156 109.324219 146.253906 114.039062 144.011719 L 115.296875 144.390625 C 115.28125 151.464844 115.167969 158.636719 116.019531 164.84375 C 115.996094 168.746094 116.320312 171.90625 116.980469 174.332031 C 117.105469 180.492188 115.757812 186.597656 117.035156 192.023438 L 117.050781 196.550781 L 116.640625 199.742188 L 118.382812 201.488281 L 118.410156 203.453125 L 116.882812 204.902344 C 116.644531 206.253906 116.933594 207.390625 117.75 208.316406 C 119.050781 209.414062 120.355469 210.082031 121.660156 210.546875 C 124.425781 211.054688 126.058594 210.898438 127.347656 210.246094 C 127.097656 207.570312 126.617188 204.960938 125.105469 202.496094 C 124.519531 201.960938 123.144531 201.292969 123.667969 199.542969 C 124.316406 198.324219 124.328125 197.109375 123.710938 195.890625 C 123.289062 194.191406 121.8125 192.761719 121.734375 190.324219 C 121.132812 187.144531 120.835938 183.738281 121.078125 179.925781 C 122.777344 179.796875 124.1875 179.316406 125.46875 178.34375 C 126.425781 177.804688 127.433594 178.082031 128.179688 179.023438 C 129.535156 179.507812 131.363281 178.789062 132.007812 177.5625 L 137.582031 170.300781 C 138.644531 168.636719 139.777344 167.3125 141.054688 166.714844 Z M 156.164062 80.664062 C 155.71875 79.824219 154.902344 80.128906 154.644531 81.148438 C 154.253906 82.707031 154.300781 84.191406 154.339844 85.636719 C 153.550781 84.441406 153.085938 82.667969 153.59375 79.832031 C 154.019531 78.46875 154.964844 77.683594 156.242188 78.679688 C 157.097656 79.570312 157.621094 80.660156 158.101562 82.097656 C 158.335938 83.109375 158.214844 83.863281 157.902344 84.324219 C 157.410156 83.105469 156.941406 81.65625 156.164062 80.664062 Z M 159.972656 96.410156 C 160.632812 96.613281 161.042969 97.183594 161.195312 97.867188 C 161.238281 98.335938 161.152344 98.871094 160.878906 99.28125 C 160.535156 98.773438 160.085938 98.441406 159.402344 98.496094 C 158.859375 98.390625 158.148438 98.414062 157.777344 98.179688 C 157.234375 97.84375 156.945312 97.363281 156.910156 96.746094 C 156.824219 96.746094 156.925781 95.191406 157.035156 95.203125 C 157.144531 95.214844 157.820312 95.933594 158.261719 96.15625 C 158.832031 96.332031 159.421875 96.355469 159.972656 96.410156 Z M 164.417969 80.238281 C 164.328125 82.65625 163.460938 84.515625 162.234375 86.125 C 162.984375 84.101562 163.167969 82.078125 162.78125 80.054688 C 162.539062 79.308594 162.375 78.476562 162.296875 77.566406 C 162.328125 76.867188 162.140625 75.953125 161.996094 75.078125 C 163.507812 76.234375 164.519531 77.789062 164.417969 80.238281 Z M 154.523438 71.195312 C 155.746094 71.601562 156.921875 72.207031 157.984375 73.257812 C 159.441406 74.574219 160.898438 75.566406 161.261719 77.324219 C 161.730469 80.035156 160.738281 81.753906 159.257812 82.847656 C 160.4375 79.246094 159.71875 76.675781 157.5 75.019531 C 154.191406 72.03125 149.660156 71.609375 144.570312 72.347656 C 146.761719 71.171875 149.902344 70.605469 154.523438 71.195312 Z M 111.050781 99.167969 L 109.109375 97.039062 C 110.109375 97.15625 111.113281 97.121094 112.113281 96.746094 C 114.773438 95.738281 117.234375 94.128906 119.40625 91.652344 C 117.4375 95.410156 114.679688 97.953125 111.050781 99.167969 Z M 134.636719 165.964844 C 132.890625 168.761719 130.691406 170.570312 128.886719 171.292969 C 127.703125 171.300781 127.328125 171.492188 127.117188 172.226562 C 126.878906 172.71875 126.117188 172.816406 125.488281 172.5 C 124.476562 172.082031 123.46875 171.75 122.457031 171.5 C 122.996094 169.273438 123.339844 166.980469 123.246094 164.542969 C 123.167969 162.617188 123.300781 160.695312 123.644531 158.769531 L 125.066406 147.148438 C 125.226562 147.148438 128.546875 143.589844 128.546875 143.589844 C 130.367188 144.40625 131.128906 145.855469 130.839844 147.9375 C 131.6875 153.179688 133.894531 158.210938 135.503906 161.222656 C 135.289062 162.070312 135.328125 162.808594 135.621094 163.433594 C 135.609375 164.308594 135.207031 165.148438 134.636719 165.964844 Z M 134.636719 165.964844 "/>
<path style=" stroke:none;fill-rule:nonzero;fill:rgb(100%,100%,100%);fill-opacity:1;" d="M 124.035156 29.152344 C 95.929688 29.152344 70 41.957031 52.878906 64.285156 C 31.417969 74.707031 12.601562 88.210938 0 102.351562 C 5.578125 102.414062 11.429688 100.707031 17.761719 95.84375 C 27.421875 87.40625 37.078125 80.925781 46.738281 75.542969 C 57.066406 70.210938 67.070312 67.683594 76.746094 68.09375 C 80.648438 68.316406 84.207031 68.332031 86.144531 67.34375 C 89.5625 65.695312 90.125 62.152344 88.421875 59.117188 C 85.160156 53.609375 75.585938 54.824219 68.734375 57.347656 C 64.734375 58.910156 60.800781 60.597656 56.929688 62.378906 C 73.648438 42.460938 97.871094 31.097656 124.035156 31.097656 C 172.375 31.097656 211.703125 70.425781 211.703125 118.769531 C 211.703125 162.023438 180.761719 198.417969 138.132812 205.3125 L 138.441406 207.234375 C 182.019531 200.191406 213.652344 162.984375 213.652344 118.769531 C 213.652344 69.355469 173.449219 29.152344 124.035156 29.152344 Z M 124.035156 29.152344 "/>
<path style=" stroke:none;fill-rule:evenodd;fill:rgb(100%,100%,100%);fill-opacity:1;" d="M 187.800781 91.179688 L 167.320312 96.257812 L 166.703125 90.761719 Z M 187.800781 91.179688 "/>
</g>
</svg>
