<?xml version="1.0" encoding="UTF-8"?>
<svg xmlns="http://www.w3.org/2000/svg" xmlns:xlink="http://www.w3.org/1999/xlink" width="58px" height="58px" viewBox="0 0 58 57" version="1.1">
<g id="surface1">
<rect x="0" y="0" width="58" height="57" style="fill:rgb(47.45098%,7.843137%,75.294118%);fill-opacity:1;stroke:none;"/>
<path style=" stroke:none;fill-rule:nonzero;fill:rgb(100%,100%,100%);fill-opacity:1;" d="M 21.828125 17.039062 C 21.097656 17.398438 20.179688 17.414062 19.191406 17.300781 C 17.175781 16.964844 15.015625 17.242188 12.695312 18.109375 C 10.28125 19.089844 7.519531 20.890625 4.539062 23.199219 C 6.316406 23.414062 8.003906 23.144531 9.566406 22.15625 C 10.714844 21.492188 11.851562 20.851562 12.957031 20.359375 C 15.429688 19.175781 17.664062 18.691406 19.699219 18.757812 C 20.382812 18.804688 21.066406 18.84375 21.75 18.804688 C 22.476562 18.640625 22.980469 18.3125 23.003906 17.632812 C 23.003906 17.550781 22.996094 17.472656 22.988281 17.394531 C 23.242188 17.839844 23.441406 18.25 23.484375 18.574219 C 23.542969 19.199219 23.207031 19.523438 22.601562 19.648438 C 21.847656 19.804688 21.015625 19.730469 20.167969 19.605469 C 18.734375 19.464844 17.195312 19.566406 15.507812 20.019531 C 13.507812 20.589844 11.402344 21.597656 9.210938 22.949219 C 9.785156 23.140625 10.359375 23.289062 10.933594 23.355469 C 11.949219 23.429688 12.933594 23.371094 13.824219 22.847656 C 15.605469 21.785156 17.621094 21.046875 20.042969 20.890625 C 20.964844 20.746094 22.011719 20.933594 23.105469 21.039062 C 23.84375 21.09375 24.285156 20.769531 24.386719 20.09375 C 24.523438 20.300781 24.65625 20.542969 24.765625 20.855469 C 24.855469 21.425781 24.441406 21.652344 23.859375 21.785156 C 23.359375 21.835938 22.835938 21.789062 22.308594 21.710938 C 21.058594 21.355469 19.832031 21.335938 18.613281 21.546875 C 16.855469 21.785156 15.152344 22.507812 13.492188 23.5625 C 14.410156 24.039062 15.417969 24.25 16.535156 24.273438 C 16.886719 24.25 17.324219 23.84375 17.773438 23.691406 C 19.269531 23.085938 20.703125 22.828125 22.097656 22.8125 C 22.835938 22.773438 23.5625 22.980469 24.28125 22.996094 C 24.992188 22.976562 25.5625 22.8125 25.640625 22.117188 L 25.890625 22.421875 C 26.765625 22.152344 27.507812 21.589844 28.167969 20.832031 C 28.835938 20.171875 29.546875 19.175781 30.300781 18.441406 C 31.191406 17.589844 32.074219 16.964844 32.9375 16.828125 C 33.160156 15.84375 33.605469 15 34.238281 14.273438 C 34.957031 13.425781 35.957031 12.644531 36.429688 11.910156 C 37.042969 11.136719 36.558594 10.335938 35.429688 10.609375 C 31.3125 11.808594 27.089844 14.097656 22.914062 17.058594 C 22.78125 16.613281 22.515625 16.210938 22.191406 15.789062 C 22.386719 16.273438 22.238281 16.789062 21.828125 17.039062 Z M 21.828125 17.039062 "/>
<path style=" stroke:none;fill-rule:nonzero;fill:rgb(100%,100%,100%);fill-opacity:1;" d="M 20.15625 33.789062 L 19.761719 33.683594 C 19.648438 33.695312 19.535156 33.738281 19.421875 33.8125 C 19.449219 35.171875 18.761719 36.144531 18.140625 37.117188 C 17.871094 37.464844 17.902344 37.789062 18.078125 38.101562 C 18.453125 38.667969 18.761719 39.289062 18.976562 39.980469 C 19.371094 40.421875 19.71875 40.988281 20 41.667969 C 20.070312 41.550781 20.136719 41.425781 20.15625 41.246094 C 20.152344 41.136719 20.203125 41.023438 20.367188 40.890625 C 20.5625 40.59375 20.433594 40.222656 20.183594 39.941406 C 19.8125 39.558594 19.605469 39.125 19.371094 38.652344 L 19.089844 38.15625 C 19.128906 38.03125 19.121094 37.886719 19.054688 37.761719 C 18.980469 37.671875 18.980469 37.574219 19.054688 37.476562 C 19.128906 37.398438 19.160156 37.265625 19.144531 37.074219 C 19.179688 36.957031 19.277344 36.871094 19.410156 36.835938 C 19.707031 36.679688 20.054688 36.535156 20.472656 36.398438 C 21.316406 36.144531 22.132812 35.589844 22.914062 34.597656 C 22.332031 34.40625 21.710938 34.15625 21.089844 33.804688 C 20.820312 33.898438 20.507812 33.855469 20.15625 33.789062 Z M 20.15625 33.789062 "/>
<path style=" stroke:none;fill-rule:nonzero;fill:rgb(100%,100%,100%);fill-opacity:1;" d="M 19.996094 33.53125 C 20.246094 33.628906 20.546875 33.675781 20.78125 33.664062 C 20.238281 33.390625 19.675781 33.066406 19.214844 32.648438 L 19.382812 33.566406 L 19.617188 33.453125 C 19.707031 33.425781 19.828125 33.445312 19.996094 33.53125 Z M 19.996094 33.53125 "/>
<path style=" stroke:none;fill-rule:nonzero;fill:rgb(100%,100%,100%);fill-opacity:1;" d="M 34.085938 39.59375 C 34.292969 39.246094 34.449219 38.847656 34.503906 38.347656 C 34.496094 37.894531 34.34375 37.476562 34.132812 37.074219 C 33.882812 36.503906 34 35.648438 33.847656 34.960938 C 34.023438 33.539062 33.28125 32.308594 33.957031 31.933594 C 34.703125 30.929688 34.996094 29.835938 34.773438 28.429688 C 34.980469 27.839844 35.007812 27.21875 34.65625 26.53125 C 34.617188 26.066406 34.664062 25.589844 34.882812 25.074219 C 34.121094 23.46875 34.945312 22.148438 36.484375 21.152344 C 35.085938 22.375 34.527344 23.730469 35.5625 25.125 C 35.785156 25.285156 35.90625 25.546875 35.929688 25.910156 C 35.996094 26.339844 36.113281 26.667969 36.28125 26.898438 C 36.390625 27.191406 36.355469 27.414062 36.261719 27.605469 C 36.1875 27.980469 36.324219 28.214844 36.554688 28.386719 L 36.824219 28.773438 C 36.914062 29.214844 37.238281 29.242188 37.53125 29.230469 C 37.734375 29.140625 37.933594 29.152344 38.132812 29.265625 C 38.507812 29.355469 38.753906 29.265625 38.875 29.003906 C 39.007812 28.792969 39.28125 28.636719 39.46875 28.371094 C 39.507812 27.773438 39.828125 27.46875 39.550781 27.121094 C 39.464844 26.9375 39.582031 26.558594 39.65625 26.214844 C 39.929688 25.324219 40.152344 24.429688 40.300781 23.523438 C 40.324219 23.214844 40.402344 22.984375 40.539062 22.871094 C 40.765625 22.445312 40.832031 22.0625 40.6875 21.859375 C 40.640625 21.632812 40.390625 21.496094 40.539062 21.1875 C 40.617188 20.941406 40.675781 20.699219 40.683594 20.453125 C 40.71875 20.28125 40.714844 20.105469 40.683594 19.929688 C 40.671875 19.507812 40.726562 19.488281 40.90625 19.273438 C 41.011719 19.164062 41.109375 19.050781 41.140625 18.835938 C 41.144531 18.609375 41.210938 18.292969 41.386719 18.117188 C 40.984375 18.050781 40.621094 18.152344 40.292969 18.390625 C 40.503906 18.964844 40.519531 19.5625 40.257812 20.207031 C 39.878906 21.015625 39.066406 21.4375 38.269531 21.746094 C 38.941406 21.238281 39.621094 20.648438 40.003906 19.964844 C 40.597656 18.707031 39.820312 17.308594 38.457031 16.984375 C 36.945312 16.105469 35.078125 16.160156 32.863281 17.164062 C 31.441406 17.890625 29.90625 19.390625 28.4375 21.160156 C 27.382812 22.289062 26.550781 22.851562 26 22.660156 C 26.226562 23.363281 25.519531 23.652344 24.167969 23.65625 C 23.042969 23.476562 22.027344 23.382812 21.214844 23.4375 C 19.597656 23.589844 18.238281 23.992188 17.054688 24.570312 C 17.5625 24.902344 18.058594 25.214844 18.566406 25.390625 C 18.96875 25.542969 19.480469 25.582031 20.246094 25.171875 C 20.898438 24.949219 21.546875 24.746094 22.199219 24.636719 C 23.019531 24.5 23.839844 24.394531 24.660156 24.492188 C 25.402344 24.601562 26.035156 24.605469 26.421875 24.367188 C 26.679688 24.257812 26.828125 24.039062 26.890625 23.660156 C 27.425781 24.25 27.730469 24.460938 27.203125 25.007812 C 26.941406 25.246094 26.421875 25.3125 25.644531 25.203125 C 24.960938 25.070312 24.277344 25.027344 23.59375 25.050781 C 22.324219 25.140625 21.054688 25.425781 19.785156 25.941406 C 20.25 26.292969 20.722656 26.621094 21.269531 26.777344 C 21.734375 26.941406 22.15625 26.871094 22.542969 26.644531 C 23.03125 26.441406 23.542969 26.285156 24.074219 26.164062 C 25.226562 25.902344 25.917969 26.054688 26.921875 26.234375 C 27.515625 26.207031 28.035156 26.066406 28.277344 25.535156 C 28.378906 25.226562 28.339844 24.917969 28.167969 24.609375 C 28.9375 24.769531 29.253906 25.261719 29 25.929688 C 28.660156 26.433594 28.105469 26.566406 27.449219 26.53125 C 25.53125 26.433594 24.144531 26.683594 23.054688 27.128906 C 24.050781 27.5625 25.308594 27.625 26.738281 27.398438 C 25.503906 27.859375 24.269531 28.050781 22.925781 27.578125 C 22.4375 27.398438 21.890625 27.273438 21.285156 27.210938 C 20.375 26.929688 19.664062 26.558594 19.148438 26.082031 C 18.328125 25.65625 18.273438 25.726562 17.609375 25.847656 C 16.644531 26 15.875 26.296875 15.386719 26.800781 C 15.050781 27.011719 14.996094 27.554688 14.566406 27.628906 C 13.761719 27.839844 12.8125 27.777344 11.847656 27.675781 C 10.746094 27.558594 9.726562 27.644531 8.796875 27.957031 C 8.8125 26.59375 8.957031 25.234375 9.238281 23.914062 L 8.78125 23.820312 C 8.476562 25.230469 8.324219 26.683594 8.320312 28.140625 C 8.257812 28.167969 8.195312 28.191406 8.132812 28.21875 C 6.601562 28.875 5.488281 30.171875 5.414062 31.550781 C 5.425781 33.070312 6.289062 33.796875 7.523438 33.84375 C 6.542969 33.417969 6.25 32.78125 6.648438 31.941406 C 6.890625 31.460938 7.574219 31.195312 8.519531 31.0625 C 8.613281 31.742188 8.738281 32.414062 8.898438 33.074219 C 9.886719 37.46875 12.097656 41.183594 15.203125 44.234375 L 14.425781 45.414062 L 15.78125 44.972656 L 15.765625 46.457031 L 16.617188 45.316406 L 18.21875 47.234375 L 17.328125 45.058594 L 18.828125 45.578125 L 17.425781 44.25 L 18.496094 43.136719 C 18.535156 43.0625 18.511719 43.003906 18.429688 42.953125 C 18.214844 42.835938 18.207031 42.652344 18.273438 42.441406 C 18.394531 42.152344 18.394531 41.917969 18.332031 41.714844 L 18.046875 41.933594 C 17.941406 42.011719 17.894531 42.183594 17.898438 42.425781 C 17.890625 42.746094 18.035156 43.132812 18.007812 43.351562 L 17.242188 43.34375 L 17.582031 41.589844 C 17.582031 41.589844 16.671875 42.890625 16.65625 42.796875 C 16.640625 42.699219 16.253906 42 16.253906 42 L 15.960938 42.890625 C 13.003906 40.324219 11.058594 37.640625 9.894531 34.859375 C 9.464844 33.605469 9.164062 32.308594 8.984375 30.984375 C 10.121094 30.699219 11.253906 30.113281 12.386719 29.226562 C 12.761719 28.871094 13.171875 28.539062 13.707031 28.257812 C 14.085938 28.128906 14.425781 28.261719 14.207031 28.792969 C 13.976562 29.949219 13.953125 31.03125 14.300781 31.976562 C 14.726562 33.015625 15.324219 33.84375 15.984375 34.59375 C 16.332031 35.007812 16.363281 35.441406 16.230469 35.835938 C 16.101562 36.246094 15.957031 36.621094 15.800781 36.980469 C 15.515625 37.609375 15.617188 37.925781 15.902344 38.144531 C 16.167969 38.300781 16.382812 38.492188 16.742188 38.957031 C 17.480469 39.679688 18.175781 40.4375 18.472656 41.390625 C 18.632812 41.765625 18.59375 42.105469 18.464844 42.429688 C 18.109375 42.804688 18.941406 42.75 18.886719 43.195312 C 18.820312 43.339844 18.582031 43.230469 18.472656 43.503906 C 18.253906 43.742188 18.21875 44.03125 18.269531 44.347656 C 18.402344 45.027344 18.742188 45.398438 19.246094 45.507812 C 20.003906 45.523438 20.019531 45.167969 20.085938 44.0625 C 20.222656 43.660156 20.261719 43.242188 20.082031 42.785156 C 20.148438 42.304688 19.636719 41.46875 19.246094 40.777344 C 18.742188 40.078125 18.261719 39.375 17.933594 38.589844 C 17.3125 37.511719 18.132812 36.828125 18.652344 35.859375 C 19.101562 34.875 19.21875 33.722656 19.058594 32.433594 C 20.515625 33.457031 21.972656 34.0625 23.429688 34.484375 C 25.03125 34.800781 26.421875 34.734375 27.558594 34.203125 L 27.863281 34.292969 C 27.859375 35.972656 27.832031 37.675781 28.039062 39.152344 C 28.03125 40.078125 28.109375 40.828125 28.269531 41.402344 C 28.300781 42.867188 27.972656 44.316406 28.285156 45.605469 L 28.289062 46.679688 L 28.1875 47.4375 L 28.609375 47.851562 L 28.617188 48.320312 L 28.246094 48.664062 C 28.1875 48.984375 28.257812 49.253906 28.457031 49.476562 C 28.769531 49.734375 29.085938 49.894531 29.402344 50.003906 C 30.070312 50.125 30.464844 50.089844 30.773438 49.933594 C 30.714844 49.296875 30.597656 48.679688 30.234375 48.09375 C 30.09375 47.964844 29.761719 47.808594 29.886719 47.390625 C 30.042969 47.101562 30.046875 46.8125 29.898438 46.523438 C 29.796875 46.121094 29.4375 45.78125 29.417969 45.203125 C 29.273438 44.445312 29.203125 43.636719 29.261719 42.734375 C 29.671875 42.703125 30.011719 42.589844 30.320312 42.355469 C 30.550781 42.230469 30.796875 42.296875 30.976562 42.519531 C 31.304688 42.632812 31.746094 42.460938 31.902344 42.171875 L 33.25 40.445312 C 33.507812 40.050781 33.78125 39.738281 34.085938 39.59375 Z M 37.738281 19.15625 C 37.632812 18.957031 37.433594 19.03125 37.371094 19.273438 C 37.277344 19.640625 37.289062 19.996094 37.300781 20.339844 C 37.109375 20.054688 36.996094 19.632812 37.117188 18.960938 C 37.222656 18.636719 37.449219 18.449219 37.757812 18.6875 C 37.964844 18.898438 38.089844 19.15625 38.207031 19.5 C 38.265625 19.738281 38.234375 19.917969 38.160156 20.027344 C 38.042969 19.738281 37.925781 19.394531 37.738281 19.15625 Z M 38.660156 22.898438 C 38.820312 22.945312 38.917969 23.082031 38.957031 23.242188 C 38.964844 23.355469 38.945312 23.480469 38.878906 23.578125 C 38.796875 23.457031 38.6875 23.378906 38.523438 23.394531 C 38.390625 23.367188 38.21875 23.375 38.128906 23.316406 C 38 23.238281 37.929688 23.125 37.917969 22.976562 C 37.898438 22.976562 37.925781 22.609375 37.949219 22.609375 C 37.976562 22.613281 38.140625 22.785156 38.246094 22.835938 C 38.382812 22.878906 38.527344 22.882812 38.660156 22.898438 Z M 39.734375 19.054688 C 39.710938 19.628906 39.503906 20.074219 39.207031 20.453125 C 39.386719 19.972656 39.433594 19.492188 39.339844 19.011719 C 39.28125 18.835938 39.242188 18.636719 39.222656 18.421875 C 39.230469 18.253906 39.183594 18.039062 39.148438 17.832031 C 39.515625 18.105469 39.757812 18.476562 39.734375 19.054688 Z M 37.34375 16.910156 C 37.640625 17.003906 37.921875 17.148438 38.179688 17.398438 C 38.53125 17.710938 38.882812 17.945312 38.972656 18.363281 C 39.085938 19.007812 38.84375 19.417969 38.488281 19.675781 C 38.773438 18.820312 38.597656 18.210938 38.0625 17.816406 C 37.261719 17.109375 36.167969 17.007812 34.9375 17.183594 C 35.46875 16.902344 36.226562 16.769531 37.34375 16.910156 Z M 26.835938 23.550781 L 26.367188 23.046875 C 26.609375 23.074219 26.851562 23.066406 27.09375 22.976562 C 27.738281 22.738281 28.332031 22.355469 28.855469 21.765625 C 28.382812 22.660156 27.714844 23.265625 26.835938 23.550781 Z M 32.535156 39.417969 C 32.113281 40.082031 31.582031 40.511719 31.148438 40.683594 C 30.859375 40.683594 30.769531 40.730469 30.71875 40.902344 C 30.664062 41.019531 30.476562 41.042969 30.328125 40.96875 C 30.082031 40.871094 29.839844 40.789062 29.59375 40.730469 C 29.722656 40.203125 29.808594 39.65625 29.785156 39.078125 C 29.765625 38.621094 29.796875 38.164062 29.878906 37.707031 L 30.222656 34.949219 C 30.261719 34.949219 31.066406 34.101562 31.066406 34.101562 C 31.503906 34.296875 31.691406 34.640625 31.621094 35.136719 C 31.824219 36.378906 32.359375 37.574219 32.746094 38.289062 C 32.695312 38.492188 32.703125 38.667969 32.773438 38.816406 C 32.773438 39.023438 32.675781 39.222656 32.535156 39.417969 Z M 32.535156 39.417969 "/>
<path style=" stroke:none;fill-rule:nonzero;fill:rgb(100%,100%,100%);fill-opacity:1;" d="M 29.976562 6.921875 C 23.183594 6.921875 16.917969 9.964844 12.777344 15.269531 C 7.59375 17.742188 3.046875 20.949219 0 24.308594 C 1.347656 24.324219 2.761719 23.917969 4.292969 22.761719 C 6.625 20.757812 8.960938 19.21875 11.296875 17.941406 C 13.789062 16.675781 16.207031 16.074219 18.546875 16.171875 C 19.488281 16.226562 20.351562 16.230469 20.816406 15.992188 C 21.644531 15.601562 21.78125 14.761719 21.367188 14.039062 C 20.582031 12.730469 18.265625 13.019531 16.609375 13.621094 C 15.644531 13.992188 14.691406 14.390625 13.757812 14.816406 C 17.796875 10.085938 23.652344 7.386719 29.976562 7.386719 C 41.65625 7.386719 51.160156 16.726562 51.160156 28.207031 C 51.160156 38.480469 43.683594 47.125 33.382812 48.761719 L 33.457031 49.21875 C 43.988281 47.546875 51.632812 38.710938 51.632812 28.207031 C 51.632812 16.472656 41.917969 6.921875 29.976562 6.921875 Z M 29.976562 6.921875 "/>
<path style=" stroke:none;fill-rule:evenodd;fill:rgb(100%,100%,100%);fill-opacity:1;" d="M 45.386719 21.65625 L 40.433594 22.863281 L 40.285156 21.554688 Z M 45.386719 21.65625 "/>
</g>
</svg>
